<?xml version="1.0" encoding="UTF-8"?>
<svg width="448px" height="512px" viewBox="0 0 448 512" version="1.1" xmlns="http://www.w3.org/2000/svg" xmlns:xlink="http://www.w3.org/1999/xlink">
    <!-- Generator: Sketch 58 (84663) - https://sketch.com -->
    <title>Shape</title>
    <desc>Created with Sketch.</desc>
    <g id="Page-1" stroke="none" stroke-width="1" fill="none" fill-rule="evenodd">
        <g id="delete" fill="#f3b229" fill-rule="nonzero">
            <path d="M32,464 C32,490.509668 53.490332,512 80,512 L368,512 C394.509668,512 416,490.509668 416,464 L416,128 L32,128 L32,464 Z M304,208 C304,199.163444 311.163444,192 320,192 C328.836556,192 336,199.163444 336,208 L336,432 C336,440.836556 328.836556,448 320,448 C311.163444,448 304,440.836556 304,432 L304,208 Z M208,208 C208,199.163444 215.163444,192 224,192 C232.836556,192 240,199.163444 240,208 L240,432 C240,440.836556 232.836556,448 224,448 C215.163444,448 208,440.836556 208,432 L208,208 Z M112,208 C112,199.163444 119.163444,192 128,192 C136.836556,192 144,199.163444 144,208 L144,432 C144,440.836556 136.836556,448 128,448 C119.163444,448 112,440.836556 112,432 L112,208 Z M432,32 L312,32 L302.6,13.3 C298.538428,5.14542737 290.21007,-0.00653386567 281.1,-0.000176270995 L166.8,-0.000176270995 C157.707064,-0.0349550427 149.394414,5.13131798 145.4,13.3 L136,32 L16,32 C7.163444,32 0,39.163444 0,48 L0,80 C0,88.836556 7.163444,96 16,96 L432,96 C440.836556,96 448,88.836556 448,80 L448,48 C448,39.163444 440.836556,32 432,32 Z" id="Shape"></path>
        </g>
    </g>
</svg>
