<?xml version="1.0" encoding="UTF-8"?>
<svg width="576px" height="513px" viewBox="0 0 576 513" version="1.1" xmlns="http://www.w3.org/2000/svg" xmlns:xlink="http://www.w3.org/1999/xlink">
    <!-- Generator: Sketch 58 (84663) - https://sketch.com -->
    <title>Shape</title>
    <desc>Created with Sketch.</desc>
    <g id="Page-1" stroke="none" stroke-width="1" fill="none" fill-rule="evenodd">
        <g id="edit" fill="#f3b229" fill-rule="nonzero">
            <path d="M402.3,345.9 L434.3,313.9 C439.3,308.9 448,312.4 448,319.6 L448,465 C448,491.5 426.5,513 400,513 L48,513 C21.5,513 0,491.5 0,465 L0,113 C0,86.5 21.5,65 48,65 L321.5,65 C328.6,65 332.2,73.6 327.2,78.7 L295.2,110.7 C293.7,112.2 291.7,113 289.5,113 L48,113 L48,465 L400,465 L400,351.5 C400,349.4 400.8,347.4 402.3,345.9 Z M558.9,144.1 L296.3,406.7 L205.9,416.7 C179.7,419.6 157.4,397.5 160.3,371.1 L170.3,280.7 L432.9,18.1 C455.8,-4.8 492.8,-4.8 515.6,18.1 L558.8,61.3 C581.7,84.2 581.7,121.3 558.9,144.1 L558.9,144.1 Z M460.1,175 L402,116.9 L216.2,302.8 L208.9,368.1 L274.2,360.8 L460.1,175 Z M524.9,95.3 L481.7,52.1 C477.6,48 470.9,48 466.9,52.1 L436,83 L494.1,141.1 L525,110.2 C529,106 529,99.4 524.9,95.3 L524.9,95.3 Z" id="Shape"></path>
        </g>
    </g>
</svg>
