<?xml version="1.0" encoding="UTF-8"?>
<svg width="512px" height="512px" viewBox="0 0 512 512" version="1.1" xmlns="http://www.w3.org/2000/svg" xmlns:xlink="http://www.w3.org/1999/xlink">
    <!-- Generator: Sketch 58 (84663) - https://sketch.com -->
    <title>Shape</title>
    <desc>Created with Sketch.</desc>
    <g id="Page-1" stroke="none" stroke-width="1" fill="none" fill-rule="evenodd">
        <g id="manage-display" transform="translate(-1.000000, -1.000000)" fill="#f3b229" fill-rule="nonzero">
            <path d="M13.41,149.02 L246.35,254.69 C253.15,257.78 260.84,257.78 267.64,254.69 L500.58,149.02 C517.13,141.51 517.13,116.5 500.58,108.99 L267.65,3.31 C260.889682,0.220046194 253.120318,0.220046194 246.36,3.31 L13.41,108.98 C-3.14,116.49 -3.14,141.51 13.41,149.02 Z M500.59,237.3 L442.5,210.97 L280.86,284.24 C273.3,287.67 265.27,289.41 257,289.41 C248.73,289.41 240.71,287.67 233.14,284.24 L71.51,210.97 L13.41,237.3 C-3.14,244.8 -3.14,269.8 13.41,277.3 L246.35,382.89 C253.15,385.97 260.84,385.97 267.64,382.89 L500.59,277.3 C517.14,269.8 517.14,244.8 500.59,237.3 Z M500.59,365.1 L442.72,338.87 L280.86,412.24 C273.3,415.67 265.27,417.41 257,417.41 C248.73,417.41 240.71,415.67 233.14,412.24 L71.29,338.87 L13.41,365.1 C-3.14,372.6 -3.14,397.6 13.41,405.1 L246.35,510.69 C253.15,513.77 260.84,513.77 267.64,510.69 L500.59,405.1 C517.14,397.6 517.14,372.6 500.59,365.1 Z" id="Shape"></path>
        </g>
    </g>
</svg>
