<?xml version="1.0" encoding="UTF-8"?>
<svg width="576px" height="512px" viewBox="0 0 576 512" version="1.1" xmlns="http://www.w3.org/2000/svg" xmlns:xlink="http://www.w3.org/1999/xlink">
    <!-- Generator: Sketch 58 (84663) - https://sketch.com -->
    <title>Shape</title>
    <desc>Created with Sketch.</desc>
    <g id="Page-1" stroke="none" stroke-width="1" fill="none" fill-rule="evenodd">
        <g id="revisions" fill="#f3b229" fill-rule="nonzero">
            <path d="M218.17,424.14 C215.22,418.22 210.08,417.62 208,417.62 C205.92,417.62 200.78,418.21 197.98,423.81 L190.31,439.15 C183.94,451.93 165.28,450.52 160.83,437.06 L144,386.59 L133.39,418.47 C127.5,436.13 111.01,448 92.39,448 L80,448 C71.16,448 64,440.84 64,432 C64,423.16 71.16,416 80,416 L92.39,416 C97.22,416 101.5,412.92 103.03,408.34 L121.22,353.7 C124.52,343.89 133.66,337.29 144,337.29 C154.34,337.29 163.48,343.88 166.77,353.7 L180.65,395.34 C200.4,379.15 234.71,385.64 246.65,409.5 C248.54,413.28 252.14,415.45 256.01,415.76 L256.01,333.64 L384.01,206.55 L384.01,160 L248,160 C234.8,160 224,149.2 224,136 L224,0 L24,0 C10.7,0 0,10.7 0,24 L0,488 C0,501.3 10.7,512 24,512 L360,512 C373.3,512 384,501.3 384,488 L384,448 L256,447.89 C239.88,447.58 225.42,438.61 218.17,424.14 Z M384,121.9 C384,115.6 381.5,109.5 377,105 L279.1,7 C274.6,2.5 268.5,0 262.1,0 L256,0 L256,128 L384,128 L384,121.9 Z M288,346.96 L288,416 L356.99,416 L518.67,253.22 L450.79,185.34 L288,346.96 L288,346.96 Z M568.54,167.33 L536.67,135.46 C526.73,125.52 510.6,125.52 500.66,135.46 L473.41,162.71 L541.29,230.59 L568.54,203.34 C578.49,193.4 578.49,177.27 568.54,167.33 Z" id="Shape"></path>
        </g>
    </g>
</svg>
