<svg fill="none" xmlns="http://www.w3.org/2000/svg">
  <path d="M4.384 7.456L3.648 10.272C3.488 10.88 3.552 11.408 4.16 11.408H4.768C4.896 11.408 4.912 11.472 4.896 11.568L4.864 11.904C4.848 12.016 4.8 12.048 4.672 12.048C4.48 12.048 3.808 12 2.4 12C1.088 12 0.512 12.048 0.288 12.048C0.192 12.048 0.16 11.984 0.16 11.888L0.192 11.568C0.224 11.472 0.256 11.408 0.384 11.408H0.672C1.44 11.408 1.696 10.832 1.872 10.176L3.776 2.976C3.92 2.448 3.968 1.872 3.36 1.872H2.624C2.528 1.872 2.528 1.808 2.528 1.712L2.624 1.376C2.656 1.28 2.688 1.28 2.848 1.28C3.008 1.28 5.856 1.232 6.4 1.232C8.096 1.232 8.896 1.344 9.664 1.984C10.368 2.56 10.624 3.072 10.624 4.16C10.624 5.888 9.248 7.648 5.984 7.648C5.344 7.648 4.672 7.552 4.384 7.456ZM5.888 1.808L4.544 6.848C4.8 7.008 5.312 7.104 5.792 7.104C7.808 7.104 8.736 5.44 8.736 4.032C8.736 2.144 7.2 1.776 6.464 1.776C6.272 1.776 6.048 1.776 5.888 1.808ZM15.6359 5.312H16.4999C16.5959 5.312 16.6279 5.376 16.5959 5.472C16.3079 6.144 15.5399 8.192 15.4119 8.608C15.3479 8.896 14.7399 10.752 14.7399 10.944C14.7399 11.104 14.8039 11.136 14.9319 11.136C15.1559 11.136 15.7959 10.368 15.9239 10.208C15.9879 10.144 16.0199 10.112 16.0839 10.16L16.2759 10.304C16.3079 10.336 16.3079 10.4 16.2759 10.496C16.1159 10.816 14.9959 12.16 13.7479 12.16C13.3959 12.16 13.2359 12 13.2359 11.744C13.2359 11.52 13.3319 11.168 13.9079 9.504L13.8119 9.472C13.1399 10.464 11.8279 12.16 10.5159 12.16C10.0999 12.16 9.52388 11.68 9.52388 11.008C9.52388 8.864 11.7639 5.344 13.9079 5.344C14.6119 5.344 14.9319 5.632 15.1239 5.888L15.3799 5.44C15.4439 5.344 15.5399 5.312 15.6359 5.312ZM11.4759 11.072C12.0839 11.072 13.8119 8.736 14.0999 8.128C14.3239 7.68 14.4839 7.2 14.4839 6.688C14.4839 6.432 14.1959 5.984 13.7479 5.984C13.3319 5.984 12.8519 6.368 12.4359 6.96C11.5399 8.224 11.0919 9.664 11.0919 10.56C11.0919 10.912 11.2199 11.072 11.4759 11.072ZM20.4166 11.616H20.4966C20.7846 11.104 21.7446 9.216 21.9366 8.416C22.0006 8.16 22.1286 7.776 22.1286 7.392C22.1286 7.104 22.0646 6.848 22.0006 6.656C21.9366 6.464 21.8406 6.24 21.8406 6.016C21.8406 5.728 22.0646 5.344 22.6406 5.344C23.2486 5.344 23.4406 5.792 23.4406 6.368C23.4406 7.072 22.8646 8.48 22.3206 9.568C21.5206 11.136 19.8246 13.952 18.4326 15.296C17.9686 15.744 17.0086 16.752 16.0166 16.752C15.3126 16.752 14.9926 16.368 14.9926 15.92C14.9926 15.44 15.3766 15.12 15.7286 15.088C16.0166 15.088 16.1446 15.216 16.3046 15.376C16.4326 15.504 16.6246 15.6 16.7526 15.6C16.9126 15.6 17.1686 15.536 17.4726 15.328C18.2086 14.8 18.8006 13.904 19.0566 13.504C19.2326 13.216 19.2806 12.832 19.2166 12.416C19.1846 11.904 18.8166 7.648 18.6246 6.944C18.5446 6.656 18.5126 6.528 18.3206 6.528C18.0326 6.528 17.6166 7.328 17.4886 7.68C17.4566 7.776 17.4246 7.776 17.3446 7.76L17.1046 7.68C17.0406 7.68 17.0406 7.616 17.0726 7.488C17.1366 7.296 17.8086 5.344 19.2166 5.344C19.7926 5.344 20.1126 5.76 20.2086 7.104C20.3366 8.928 20.4006 10.816 20.4166 11.616ZM27.1183 7.52L26.2223 9.952C25.9983 10.56 25.9343 10.816 25.9343 10.976C25.9343 11.104 25.9983 11.2 26.1263 11.2C26.4463 11.168 27.2783 10.304 27.3743 10.176C27.4062 10.112 27.4703 10.112 27.5182 10.16L27.6943 10.336C27.7583 10.4 27.7903 10.432 27.7263 10.496C27.6302 10.624 26.5103 12.16 24.7663 12.16C24.4303 12.16 24.3023 11.968 24.3023 11.712C24.3023 11.392 24.5583 10.64 25.1983 8.864L25.6463 7.616C25.8063 7.184 25.9023 6.88 25.9023 6.688C25.9023 6.56 25.8383 6.496 25.7103 6.496C25.4543 6.496 24.7183 7.328 24.4943 7.584C24.4303 7.648 24.3663 7.648 24.3023 7.584L24.1423 7.44C24.0783 7.392 24.0463 7.36 24.0783 7.296C24.1743 7.2 25.6143 5.344 27.0223 5.344C27.4062 5.344 27.5983 5.536 27.5983 5.856C27.5983 6.176 27.3903 6.768 27.1183 7.52ZM27.4223 3.408C26.7823 3.408 26.4943 2.944 26.4943 2.544C26.4943 2.112 26.8943 1.68 27.3903 1.68C28.0303 1.68 28.3663 2.08 28.3663 2.48C28.3663 2.848 27.9983 3.408 27.4223 3.408ZM30.6701 10.432L30.1581 11.904C30.1261 11.968 30.0941 12 29.9341 12H28.9101C28.7661 12 28.7501 11.888 28.7821 11.792L29.8701 8.832C30.2221 7.808 30.6061 6.816 30.6061 6.592C30.6061 6.432 30.5101 6.336 30.3661 6.336C30.0781 6.336 29.4541 6.912 29.1981 7.168C29.1661 7.232 29.1021 7.232 29.0541 7.184L28.8781 7.008C28.8141 6.976 28.7821 6.912 28.8461 6.848C29.0701 6.56 30.1261 5.344 31.5821 5.344C32.0461 5.344 32.1901 5.664 32.1901 5.888C32.1901 6.24 31.7261 7.328 31.4381 8.032L31.5341 8.096C32.0141 7.36 33.4861 5.344 35.0061 5.344C35.5981 5.344 35.9181 5.792 35.9181 6.24C35.9181 6.656 35.7101 7.408 35.0541 9.056C34.6381 10.112 34.4141 10.72 34.4141 10.944C34.4141 11.104 34.4781 11.2 34.6061 11.2C34.8301 11.2 35.4381 10.656 35.5981 10.432C35.6621 10.4 35.7261 10.4 35.7901 10.464L35.9501 10.592C36.0141 10.624 36.0141 10.688 35.9501 10.784C35.7581 11.04 34.6381 12.16 33.2941 12.16C32.9421 12.16 32.7501 11.968 32.7501 11.68C32.7501 11.392 33.1981 10.304 33.7101 8.896C33.9501 8.224 34.3981 7.008 34.3981 6.816C34.3981 6.56 34.2541 6.432 34.0301 6.432C33.5501 6.432 32.2061 7.712 31.5341 8.8C31.2141 9.312 30.9261 9.792 30.6701 10.432ZM38.9625 16.752C37.0745 16.752 35.5065 15.792 35.5065 14.768C35.5065 14.256 35.6985 13.936 36.1785 13.552C36.8185 13.008 37.7145 12.656 38.1945 12.464C37.7145 12.112 37.5865 11.824 37.5865 11.504C37.5865 11.152 38.0345 10.768 38.9625 10.32L38.9945 10.256C38.2585 9.968 37.6825 9.488 37.6825 8.384C37.6825 7.2 38.8025 5.344 40.8185 5.344C41.7785 5.344 42.2265 5.856 42.3865 6.032C42.6425 5.84 43.1865 5.504 43.7305 5.504C44.2425 5.504 44.4345 5.92 44.4345 6.208C44.4345 6.496 44.2425 6.784 43.8585 6.784C43.6025 6.784 43.4425 6.688 43.3145 6.56C43.2505 6.464 43.1545 6.4 43.0265 6.4C42.8985 6.4 42.7065 6.496 42.6425 6.592C42.7065 6.784 42.7385 7.136 42.7385 7.408C42.7385 8.176 42.0665 10.032 40.2105 10.32C39.8585 10.384 39.6345 10.416 39.6025 10.416C39.2825 10.576 38.9305 10.896 38.9305 11.152C38.9305 11.312 39.1225 11.504 39.2505 11.6C39.5385 11.808 40.3385 12.208 41.4585 12.88C42.4185 13.456 42.6745 14 42.6745 14.48C42.6745 14.864 42.5145 15.632 41.5225 16.176C40.9145 16.528 40.1785 16.752 38.9625 16.752ZM39.6985 9.824C40.6905 9.824 41.2985 7.968 41.2985 6.832C41.2985 6.208 41.1705 5.856 40.7225 5.856C40.3705 5.856 40.1145 6.048 39.8425 6.48C39.2185 7.472 39.1225 8.112 39.1225 8.928C39.1225 9.536 39.3145 9.824 39.6985 9.824ZM39.3465 16.176C40.1465 16.176 41.1385 15.808 41.1385 15.056C41.1385 14.352 40.6905 14.048 40.0185 13.648C39.8585 13.552 38.8345 12.944 38.5945 12.784C37.6185 13.232 37.0105 13.776 37.0105 14.512C37.0105 15.632 38.1625 16.176 39.3465 16.176ZM50.9208 5.696H52.5528C52.6488 5.696 52.6808 5.76 52.6488 5.856L52.5688 6.272C52.5528 6.368 52.5208 6.4 52.3928 6.4H50.7928C50.4408 7.648 49.7368 10.4 49.0648 12.256C48.1848 14.672 46.9047 16.752 45.0327 16.752C44.2007 16.752 43.6887 16.336 43.6887 15.76C43.6887 15.344 43.9767 14.992 44.4247 14.992C44.9367 14.992 45.1927 15.408 45.2247 15.824C45.2567 15.984 45.3527 16.08 45.5447 16.08C46.2807 16.08 47.0488 14.736 47.8168 11.808L49.2568 6.4H47.8808C47.7848 6.4 47.7528 6.336 47.7688 6.24L47.8488 5.856C47.8808 5.76 47.9128 5.696 48.0408 5.696H49.3848C49.8648 4.432 50.1208 3.344 51.2088 2.16C51.6248 1.68 52.6168 1.04 53.6408 1.04C54.8248 1.04 55.3368 1.616 55.3368 2.096C55.3368 2.544 54.9848 2.864 54.6008 2.864C53.9928 2.864 53.8008 2.544 53.7368 2.128C53.7048 1.968 53.5768 1.664 53.1608 1.664C51.9128 1.664 51.4008 3.984 50.9208 5.696ZM54.4194 12.16C53.4754 12.16 52.4994 11.44 52.4994 9.968C52.4994 8.624 52.9474 7.344 53.8434 6.368C54.4834 5.664 55.2514 5.344 56.1154 5.344C57.0434 5.344 58.0994 5.92 58.0994 7.36C58.0994 8.384 57.6834 10.048 56.7234 11.104C56.1154 11.808 55.3794 12.16 54.4194 12.16ZM54.1954 11.296C54.8194 11.296 55.3954 10.848 56.0194 9.808C56.6114 8.8 57.1074 7.472 57.1074 6.896C57.1074 6.544 56.8834 6.176 56.4194 6.176C55.7634 6.176 55.1554 6.736 54.3714 8.048C53.8434 8.944 53.5234 9.904 53.5234 10.544C53.5234 10.976 53.8434 11.296 54.1954 11.296ZM60.4059 12H59.3499C59.2539 12 59.1899 11.936 59.2219 11.872L60.0219 9.28C60.2619 8.48 60.7899 6.848 60.7899 6.56C60.7899 6.432 60.6619 6.304 60.5019 6.304C60.2139 6.304 59.5739 6.912 59.3499 7.232C59.3179 7.296 59.2539 7.296 59.1899 7.264L58.9979 7.136C58.9659 7.104 58.9659 7.04 58.9979 6.976C59.2859 6.496 60.2139 5.344 61.5259 5.344C62.0059 5.344 62.1659 5.664 62.1659 5.952C62.1659 6.24 61.8779 7.072 61.5259 8.128L61.6379 8.192C62.0539 7.296 63.1899 5.344 64.2459 5.344C64.6939 5.344 65.0779 5.664 65.0779 6.144C65.0779 6.624 64.6939 7.04 64.4059 7.04C64.2139 7.04 64.0539 7.008 63.9259 6.912C63.7979 6.816 63.7019 6.72 63.4779 6.72C63.0299 6.72 62.1339 8.032 61.6539 8.96C61.4939 9.312 61.3179 9.728 61.1419 10.272L60.5979 11.904C60.5659 11.968 60.5019 12 60.4059 12ZM71.4974 6.4L70.0894 9.92C69.9614 10.272 69.8014 10.656 69.8014 10.848C69.8014 11.008 69.8974 11.136 70.0894 11.136C70.4574 11.136 71.4494 10.336 71.5454 10.24C71.6094 10.176 71.6414 10.176 71.7054 10.24L71.8814 10.432C71.9454 10.464 71.9454 10.496 71.9134 10.56C71.7214 10.816 70.2814 12.16 68.8414 12.16C68.3614 12.16 68.1694 11.904 68.1694 11.68C68.1694 11.392 68.2334 11.072 68.3294 10.784L70.0254 6.4H68.8414C68.7454 6.4 68.7134 6.368 68.7454 6.24L68.8734 5.824C68.9054 5.728 68.9374 5.696 69.0334 5.696H70.2654L70.9214 4C70.9854 3.84 71.0494 3.808 71.3374 3.776C71.6574 3.744 72.2974 3.456 72.4254 3.36C72.5214 3.328 72.6174 3.264 72.6814 3.264C72.7774 3.264 72.8414 3.424 72.7774 3.584L71.7374 5.696H73.3854C73.4494 5.696 73.4814 5.76 73.4494 5.856L73.3214 6.32C73.3054 6.384 73.2574 6.4 73.1614 6.4H71.4974ZM75.8711 7.584L75.9671 7.68C76.7351 6.528 77.7911 5.344 79.0071 5.344C79.9991 5.344 80.2871 6.112 80.2871 6.832C80.2871 8 79.8071 9.344 79.2311 10.368C78.5271 11.648 77.6311 12.512 76.5751 12.512C76.0631 12.512 75.6471 12.16 75.6471 11.648C75.6471 11.264 75.9031 10.848 76.3191 10.848C76.7031 10.848 76.8631 11.136 76.8951 11.392C76.9271 11.616 76.9911 11.824 77.2151 11.824C77.5671 11.824 77.9191 10.816 78.1751 9.984C78.4951 9.056 78.7831 7.872 78.7831 7.12C78.7831 6.752 78.6871 6.368 78.3031 6.368C77.5991 6.368 76.4151 7.712 75.9671 8.288C75.5831 8.8 75.2631 9.376 75.0711 9.92L74.2391 11.872C74.2071 11.968 74.1591 12 74.0471 12H73.0231C72.8791 12 72.8471 11.904 72.8951 11.776L76.3191 2.848C76.4471 2.512 76.5271 2.24 76.5271 2.096C76.5271 1.904 76.3191 1.776 76.0311 1.776H75.5511C75.4871 1.776 75.4231 1.712 75.4551 1.616L75.5191 1.328C75.5511 1.232 75.5831 1.2 75.7431 1.2H78.2711C78.3991 1.2 78.4631 1.264 78.4631 1.36C78.4631 1.456 78.3991 1.616 78.3031 1.856L75.8711 7.584ZM85.2844 10.24L85.5244 10.416C85.6044 10.464 85.6044 10.496 85.5724 10.56C85.2204 11.136 84.1324 12.16 82.7244 12.16C81.6684 12.16 81.0284 11.584 81.0284 10.464C81.0284 9.216 81.7004 7.52 83.0124 6.336C83.6524 5.76 84.5484 5.344 85.4124 5.344C86.1484 5.344 86.5324 5.824 86.5324 6.288C86.5324 7.104 85.9884 7.84 85.0604 8.352C84.1964 8.8 83.3324 8.992 82.7244 9.024C82.6604 9.184 82.5644 9.632 82.5644 10.208C82.5644 10.848 82.9804 11.232 83.4284 11.232C84.1644 11.232 84.8044 10.752 85.1564 10.272C85.1884 10.24 85.2524 10.208 85.2844 10.24ZM84.6444 6.112C83.8444 6.112 83.0444 7.648 82.8524 8.512C83.1404 8.512 83.9084 8.32 84.4524 7.904C84.8044 7.616 85.1244 7.136 85.1244 6.688C85.1244 6.4 84.9964 6.112 84.6444 6.112ZM91.0814 12V0.735999H96.9054C99.5294 0.735999 101.273 2.048 101.273 4.272C101.273 6.576 99.6254 7.952 96.8734 7.952H93.8334V12H91.0814ZM93.8334 2.832V5.84H96.6494C97.8174 5.84 98.5374 5.44 98.5374 4.32C98.5374 3.408 97.9774 2.832 96.6494 2.832H93.8334ZM110.874 6.576V9.68C110.874 10.752 110.922 11.824 110.938 12H108.474C108.41 11.808 108.394 11.296 108.378 11.072C107.93 11.776 106.986 12.224 105.418 12.224C103.162 12.224 102.25 10.848 102.25 9.52C102.25 7.36 104.154 6.752 106.586 6.752H108.314V6.496C108.314 5.824 108.026 5.28 106.81 5.28C105.69 5.28 105.434 5.696 105.322 6.176H102.714C102.778 5.152 103.498 3.504 106.778 3.504C110.362 3.504 110.874 5.2 110.874 6.576ZM108.314 8.528V8.4C108.122 8.384 107.562 8.384 106.634 8.384C105.306 8.384 104.778 8.736 104.778 9.392C104.778 9.936 105.21 10.368 106.17 10.368C107.594 10.368 108.314 9.712 108.314 8.528ZM113.136 12V5.984C113.136 5.232 113.136 4.48 113.12 3.728H115.664C115.712 4.032 115.744 4.944 115.744 5.392C116.208 4.304 117.216 3.488 118.928 3.52V5.904C117.056 5.872 115.744 6.624 115.744 8.976V12H113.136ZM120.323 12V3.728H122.931V12H120.323ZM122.931 2.176H120.323V0.079999H122.931V2.176ZM124.511 9.456H127.103C127.311 10.048 127.855 10.432 128.975 10.432C130.095 10.432 130.399 10.096 130.399 9.696C130.399 9.232 130.047 9.008 128.383 8.784C125.231 8.336 124.799 7.184 124.799 6.176C124.799 4.912 125.743 3.504 128.623 3.504C131.535 3.504 132.559 4.88 132.671 6.064H130.111C129.983 5.68 129.695 5.232 128.527 5.232C127.535 5.232 127.359 5.616 127.359 5.904C127.359 6.256 127.631 6.464 129.167 6.688C132.527 7.2 132.959 8.32 132.959 9.472C132.959 10.976 131.823 12.224 128.799 12.224C126.543 12.224 124.767 11.264 124.511 9.456ZM146.753 9.44H141.745L140.769 12H137.953L142.481 0.735999H146.001L150.769 12H147.809L146.753 9.44ZM142.449 7.248H146.001C144.945 4.672 144.433 3.344 144.161 2.496H144.145C143.905 3.328 143.297 5.04 142.449 7.248ZM160.952 6.16V11.072C160.952 14.048 159.656 15.712 156.152 15.712C152.472 15.712 151.832 13.68 151.688 12.768H154.328C154.52 13.296 154.968 13.776 156.296 13.776C157.992 13.776 158.376 12.688 158.376 11.28V10.928C157.896 11.6 157.224 12.096 155.624 12.096C153.224 12.096 151.624 10.224 151.624 7.968C151.624 5.408 153.464 3.504 155.832 3.504C157.56 3.504 158.168 4.192 158.376 4.656C158.392 4.368 158.408 3.936 158.424 3.728H160.968C160.952 4.544 160.952 5.36 160.952 6.16ZM154.296 7.872C154.296 9.072 155 10.096 156.344 10.096C157.672 10.096 158.424 9.312 158.424 7.792C158.424 6.448 157.736 5.536 156.424 5.536C155.048 5.536 154.296 6.56 154.296 7.872ZM163.229 12V5.984C163.229 5.232 163.229 4.48 163.213 3.728H165.757C165.805 4.032 165.837 4.944 165.837 5.392C166.301 4.304 167.309 3.488 169.021 3.52V5.904C167.149 5.872 165.837 6.624 165.837 8.976V12H163.229ZM179.056 8.496H172.576C172.64 9.504 173.36 10.288 174.608 10.288C175.584 10.288 176.048 9.984 176.352 9.472H178.976C178.464 10.944 177.232 12.224 174.576 12.224C171.184 12.224 169.968 9.984 169.968 7.872C169.968 5.552 171.536 3.504 174.56 3.504C177.776 3.504 179.072 5.728 179.072 7.872C179.072 8.08 179.072 8.24 179.056 8.496ZM172.608 6.896H176.416C176.368 6.272 176.032 5.344 174.544 5.344C173.184 5.344 172.672 6.08 172.608 6.896ZM189.446 8.496H182.966C183.03 9.504 183.75 10.288 184.998 10.288C185.974 10.288 186.438 9.984 186.742 9.472H189.366C188.854 10.944 187.622 12.224 184.966 12.224C181.574 12.224 180.358 9.984 180.358 7.872C180.358 5.552 181.926 3.504 184.95 3.504C188.166 3.504 189.462 5.728 189.462 7.872C189.462 8.08 189.462 8.24 189.446 8.496ZM182.998 6.896H186.806C186.758 6.272 186.422 5.344 184.934 5.344C183.574 5.344 183.062 6.08 182.998 6.896ZM191.12 12V5.872C191.12 5.152 191.12 4.448 191.104 3.728H193.6C193.648 4.048 193.664 4.416 193.664 4.704C194.096 4.112 194.88 3.504 196.192 3.504C197.648 3.504 198.352 4.144 198.688 4.864C199.12 4.256 199.888 3.504 201.472 3.504C203.2 3.504 204.56 4.544 204.56 7.008V12H201.984V7.072C201.984 6.352 201.744 5.488 200.656 5.488C199.712 5.488 199.152 6.08 199.152 7.44V12H196.56V7.056C196.56 6.24 196.256 5.488 195.216 5.488C194.16 5.488 193.696 6.24 193.696 7.44V12H191.12ZM215.368 8.496H208.888C208.952 9.504 209.672 10.288 210.92 10.288C211.896 10.288 212.36 9.984 212.664 9.472H215.288C214.776 10.944 213.544 12.224 210.888 12.224C207.496 12.224 206.28 9.984 206.28 7.872C206.28 5.552 207.848 3.504 210.872 3.504C214.088 3.504 215.384 5.728 215.384 7.872C215.384 8.08 215.384 8.24 215.368 8.496ZM208.92 6.896H212.728C212.68 6.272 212.344 5.344 210.856 5.344C209.496 5.344 208.984 6.08 208.92 6.896ZM217.042 12V5.824C217.042 5.12 217.042 4.32 217.026 3.728H219.57C219.602 3.968 219.634 4.464 219.65 4.8C220.034 4.224 220.786 3.504 222.402 3.504C224.434 3.504 225.634 4.768 225.634 6.896V12H222.994V7.312C222.994 6.368 222.626 5.536 221.458 5.536C220.226 5.536 219.666 6.384 219.666 7.872V12H217.042ZM226.865 5.632V3.728H228.353V1.296H230.977V3.728H232.897V5.632H230.977V9.12C230.977 9.824 231.121 10.144 231.921 10.144C232.145 10.144 232.401 10.144 232.625 10.096V11.888C232.177 12.016 231.585 12.064 230.977 12.064C228.945 12.064 228.353 11.184 228.353 9.568V5.632H226.865Z" fill="#1A1919"/>
</svg>