<svg viewBox="0 0 166 33" fill="none" xmlns="http://www.w3.org/2000/svg">
  <path d="M4.384 6.456L3.648 9.272C3.488 9.88 3.552 10.408 4.16 10.408H4.768C4.896 10.408 4.912 10.472 4.896 10.568L4.864 10.904C4.848 11.016 4.8 11.048 4.672 11.048C4.48 11.048 3.808 11 2.4 11C1.088 11 0.512 11.048 0.288 11.048C0.192 11.048 0.16 10.984 0.16 10.888L0.192 10.568C0.224 10.472 0.256 10.408 0.384 10.408H0.672C1.44 10.408 1.696 9.832 1.872 9.176L3.776 1.976C3.92 1.448 3.968 0.872 3.36 0.872H2.624C2.528 0.872 2.528 0.808 2.528 0.712L2.624 0.375999C2.656 0.28 2.688 0.28 2.848 0.28C3.008 0.28 5.856 0.231999 6.4 0.231999C8.096 0.231999 8.896 0.344 9.664 0.983999C10.368 1.56 10.624 2.072 10.624 3.16C10.624 4.888 9.248 6.648 5.984 6.648C5.344 6.648 4.672 6.552 4.384 6.456ZM5.888 0.808L4.544 5.848C4.8 6.008 5.312 6.104 5.792 6.104C7.808 6.104 8.736 4.44 8.736 3.032C8.736 1.144 7.2 0.775999 6.464 0.775999C6.272 0.775999 6.048 0.775999 5.888 0.808ZM15.6359 4.312H16.4999C16.5959 4.312 16.6279 4.376 16.5959 4.472C16.3079 5.144 15.5399 7.192 15.4119 7.608C15.3479 7.896 14.7399 9.752 14.7399 9.944C14.7399 10.104 14.8039 10.136 14.9319 10.136C15.1559 10.136 15.7959 9.368 15.9239 9.208C15.9879 9.144 16.0199 9.112 16.0839 9.16L16.2759 9.304C16.3079 9.336 16.3079 9.4 16.2759 9.496C16.1159 9.816 14.9959 11.16 13.7479 11.16C13.3959 11.16 13.2359 11 13.2359 10.744C13.2359 10.52 13.3319 10.168 13.9079 8.504L13.8119 8.472C13.1399 9.464 11.8279 11.16 10.5159 11.16C10.0999 11.16 9.52388 10.68 9.52388 10.008C9.52388 7.864 11.7639 4.344 13.9079 4.344C14.6119 4.344 14.9319 4.632 15.1239 4.888L15.3799 4.44C15.4439 4.344 15.5399 4.312 15.6359 4.312ZM11.4759 10.072C12.0839 10.072 13.8119 7.736 14.0999 7.128C14.3239 6.68 14.4839 6.2 14.4839 5.688C14.4839 5.432 14.1959 4.984 13.7479 4.984C13.3319 4.984 12.8519 5.368 12.4359 5.96C11.5399 7.224 11.0919 8.664 11.0919 9.56C11.0919 9.912 11.2199 10.072 11.4759 10.072ZM20.4166 10.616H20.4966C20.7846 10.104 21.7446 8.216 21.9366 7.416C22.0006 7.16 22.1286 6.776 22.1286 6.392C22.1286 6.104 22.0646 5.848 22.0006 5.656C21.9366 5.464 21.8406 5.24 21.8406 5.016C21.8406 4.728 22.0646 4.344 22.6406 4.344C23.2486 4.344 23.4406 4.792 23.4406 5.368C23.4406 6.072 22.8646 7.48 22.3206 8.568C21.5206 10.136 19.8246 12.952 18.4326 14.296C17.9686 14.744 17.0086 15.752 16.0166 15.752C15.3126 15.752 14.9926 15.368 14.9926 14.92C14.9926 14.44 15.3766 14.12 15.7286 14.088C16.0166 14.088 16.1446 14.216 16.3046 14.376C16.4326 14.504 16.6246 14.6 16.7526 14.6C16.9126 14.6 17.1686 14.536 17.4726 14.328C18.2086 13.8 18.8006 12.904 19.0566 12.504C19.2326 12.216 19.2806 11.832 19.2166 11.416C19.1846 10.904 18.8166 6.648 18.6246 5.944C18.5446 5.656 18.5126 5.528 18.3206 5.528C18.0326 5.528 17.6166 6.328 17.4886 6.68C17.4566 6.776 17.4246 6.776 17.3446 6.76L17.1046 6.68C17.0406 6.68 17.0406 6.616 17.0726 6.488C17.1366 6.296 17.8086 4.344 19.2166 4.344C19.7926 4.344 20.1126 4.76 20.2086 6.104C20.3366 7.928 20.4006 9.816 20.4166 10.616ZM27.1183 6.52L26.2223 8.952C25.9983 9.56 25.9343 9.816 25.9343 9.976C25.9343 10.104 25.9983 10.2 26.1263 10.2C26.4463 10.168 27.2783 9.304 27.3743 9.176C27.4062 9.112 27.4703 9.112 27.5182 9.16L27.6943 9.336C27.7583 9.4 27.7903 9.432 27.7263 9.496C27.6302 9.624 26.5103 11.16 24.7663 11.16C24.4303 11.16 24.3023 10.968 24.3023 10.712C24.3023 10.392 24.5583 9.64 25.1983 7.864L25.6463 6.616C25.8063 6.184 25.9023 5.88 25.9023 5.688C25.9023 5.56 25.8383 5.496 25.7103 5.496C25.4543 5.496 24.7183 6.328 24.4943 6.584C24.4303 6.648 24.3663 6.648 24.3023 6.584L24.1423 6.44C24.0783 6.392 24.0463 6.36 24.0783 6.296C24.1743 6.2 25.6143 4.344 27.0223 4.344C27.4062 4.344 27.5983 4.536 27.5983 4.856C27.5983 5.176 27.3903 5.768 27.1183 6.52ZM27.4223 2.408C26.7823 2.408 26.4943 1.944 26.4943 1.544C26.4943 1.112 26.8943 0.679999 27.3903 0.679999C28.0303 0.679999 28.3663 1.08 28.3663 1.48C28.3663 1.848 27.9983 2.408 27.4223 2.408ZM30.6701 9.432L30.1581 10.904C30.1261 10.968 30.0941 11 29.9341 11H28.9101C28.7661 11 28.7501 10.888 28.7821 10.792L29.8701 7.832C30.2221 6.808 30.6061 5.816 30.6061 5.592C30.6061 5.432 30.5101 5.336 30.3661 5.336C30.0781 5.336 29.4541 5.912 29.1981 6.168C29.1661 6.232 29.1021 6.232 29.0541 6.184L28.8781 6.008C28.8141 5.976 28.7821 5.912 28.8461 5.848C29.0701 5.56 30.1261 4.344 31.5821 4.344C32.0461 4.344 32.1901 4.664 32.1901 4.888C32.1901 5.24 31.7261 6.328 31.4381 7.032L31.5341 7.096C32.0141 6.36 33.4861 4.344 35.0061 4.344C35.5981 4.344 35.9181 4.792 35.9181 5.24C35.9181 5.656 35.7101 6.408 35.0541 8.056C34.6381 9.112 34.4141 9.72 34.4141 9.944C34.4141 10.104 34.4781 10.2 34.6061 10.2C34.8301 10.2 35.4381 9.656 35.5981 9.432C35.6621 9.4 35.7261 9.4 35.7901 9.464L35.9501 9.592C36.0141 9.624 36.0141 9.688 35.9501 9.784C35.7581 10.04 34.6381 11.16 33.2941 11.16C32.9421 11.16 32.7501 10.968 32.7501 10.68C32.7501 10.392 33.1981 9.304 33.7101 7.896C33.9501 7.224 34.3981 6.008 34.3981 5.816C34.3981 5.56 34.2541 5.432 34.0301 5.432C33.5501 5.432 32.2061 6.712 31.5341 7.8C31.2141 8.312 30.9261 8.792 30.6701 9.432ZM38.9625 15.752C37.0745 15.752 35.5065 14.792 35.5065 13.768C35.5065 13.256 35.6985 12.936 36.1785 12.552C36.8185 12.008 37.7145 11.656 38.1945 11.464C37.7145 11.112 37.5865 10.824 37.5865 10.504C37.5865 10.152 38.0345 9.768 38.9625 9.32L38.9945 9.256C38.2585 8.968 37.6825 8.488 37.6825 7.384C37.6825 6.2 38.8025 4.344 40.8185 4.344C41.7785 4.344 42.2265 4.856 42.3865 5.032C42.6425 4.84 43.1865 4.504 43.7305 4.504C44.2425 4.504 44.4345 4.92 44.4345 5.208C44.4345 5.496 44.2425 5.784 43.8585 5.784C43.6025 5.784 43.4425 5.688 43.3145 5.56C43.2505 5.464 43.1545 5.4 43.0265 5.4C42.8985 5.4 42.7065 5.496 42.6425 5.592C42.7065 5.784 42.7385 6.136 42.7385 6.408C42.7385 7.176 42.0665 9.032 40.2105 9.32C39.8585 9.384 39.6345 9.416 39.6025 9.416C39.2825 9.576 38.9305 9.896 38.9305 10.152C38.9305 10.312 39.1225 10.504 39.2505 10.6C39.5385 10.808 40.3385 11.208 41.4585 11.88C42.4185 12.456 42.6745 13 42.6745 13.48C42.6745 13.864 42.5145 14.632 41.5225 15.176C40.9145 15.528 40.1785 15.752 38.9625 15.752ZM39.6985 8.824C40.6905 8.824 41.2985 6.968 41.2985 5.832C41.2985 5.208 41.1705 4.856 40.7225 4.856C40.3705 4.856 40.1145 5.048 39.8425 5.48C39.2185 6.472 39.1225 7.112 39.1225 7.928C39.1225 8.536 39.3145 8.824 39.6985 8.824ZM39.3465 15.176C40.1465 15.176 41.1385 14.808 41.1385 14.056C41.1385 13.352 40.6905 13.048 40.0185 12.648C39.8585 12.552 38.8345 11.944 38.5945 11.784C37.6185 12.232 37.0105 12.776 37.0105 13.512C37.0105 14.632 38.1625 15.176 39.3465 15.176ZM50.9208 4.696H52.5528C52.6488 4.696 52.6808 4.76 52.6488 4.856L52.5688 5.272C52.5528 5.368 52.5208 5.4 52.3928 5.4H50.7928C50.4408 6.648 49.7368 9.4 49.0648 11.256C48.1848 13.672 46.9047 15.752 45.0327 15.752C44.2007 15.752 43.6887 15.336 43.6887 14.76C43.6887 14.344 43.9767 13.992 44.4247 13.992C44.9367 13.992 45.1927 14.408 45.2247 14.824C45.2567 14.984 45.3527 15.08 45.5447 15.08C46.2807 15.08 47.0488 13.736 47.8168 10.808L49.2568 5.4H47.8808C47.7848 5.4 47.7528 5.336 47.7688 5.24L47.8488 4.856C47.8808 4.76 47.9128 4.696 48.0408 4.696H49.3848C49.8648 3.432 50.1208 2.344 51.2088 1.16C51.6248 0.679999 52.6168 0.039999 53.6408 0.039999C54.8248 0.039999 55.3368 0.615999 55.3368 1.096C55.3368 1.544 54.9848 1.864 54.6008 1.864C53.9928 1.864 53.8008 1.544 53.7368 1.128C53.7048 0.967999 53.5768 0.664 53.1608 0.664C51.9128 0.664 51.4008 2.984 50.9208 4.696ZM54.4194 11.16C53.4754 11.16 52.4994 10.44 52.4994 8.968C52.4994 7.624 52.9474 6.344 53.8434 5.368C54.4834 4.664 55.2514 4.344 56.1154 4.344C57.0434 4.344 58.0994 4.92 58.0994 6.36C58.0994 7.384 57.6834 9.048 56.7234 10.104C56.1154 10.808 55.3794 11.16 54.4194 11.16ZM54.1954 10.296C54.8194 10.296 55.3954 9.848 56.0194 8.808C56.6114 7.8 57.1074 6.472 57.1074 5.896C57.1074 5.544 56.8834 5.176 56.4194 5.176C55.7634 5.176 55.1554 5.736 54.3714 7.048C53.8434 7.944 53.5234 8.904 53.5234 9.544C53.5234 9.976 53.8434 10.296 54.1954 10.296ZM60.4059 11H59.3499C59.2539 11 59.1899 10.936 59.2219 10.872L60.0219 8.28C60.2619 7.48 60.7899 5.848 60.7899 5.56C60.7899 5.432 60.6619 5.304 60.5019 5.304C60.2139 5.304 59.5739 5.912 59.3499 6.232C59.3179 6.296 59.2539 6.296 59.1899 6.264L58.9979 6.136C58.9659 6.104 58.9659 6.04 58.9979 5.976C59.2859 5.496 60.2139 4.344 61.5259 4.344C62.0059 4.344 62.1659 4.664 62.1659 4.952C62.1659 5.24 61.8779 6.072 61.5259 7.128L61.6379 7.192C62.0539 6.296 63.1899 4.344 64.2459 4.344C64.6939 4.344 65.0779 4.664 65.0779 5.144C65.0779 5.624 64.6939 6.04 64.4059 6.04C64.2139 6.04 64.0539 6.008 63.9259 5.912C63.7979 5.816 63.7019 5.72 63.4779 5.72C63.0299 5.72 62.1339 7.032 61.6539 7.96C61.4939 8.312 61.3179 8.728 61.1419 9.272L60.5979 10.904C60.5659 10.968 60.5019 11 60.4059 11ZM3.888 23.4L2.48 26.92C2.352 27.272 2.192 27.656 2.192 27.848C2.192 28.008 2.288 28.136 2.48 28.136C2.848 28.136 3.84 27.336 3.936 27.24C4 27.176 4.032 27.176 4.096 27.24L4.272 27.432C4.336 27.464 4.336 27.496 4.304 27.56C4.112 27.816 2.672 29.16 1.232 29.16C0.752 29.16 0.56 28.904 0.56 28.68C0.56 28.392 0.624 28.072 0.72 27.784L2.416 23.4H1.232C1.136 23.4 1.104 23.368 1.136 23.24L1.264 22.824C1.296 22.728 1.328 22.696 1.424 22.696H2.656L3.312 21C3.376 20.84 3.44 20.808 3.728 20.776C4.048 20.744 4.688 20.456 4.816 20.36C4.912 20.328 5.008 20.264 5.072 20.264C5.168 20.264 5.232 20.424 5.168 20.584L4.128 22.696H5.776C5.84 22.696 5.872 22.76 5.84 22.856L5.712 23.32C5.696 23.384 5.648 23.4 5.552 23.4H3.888ZM8.26175 24.584L8.35775 24.68C9.12575 23.528 10.1818 22.344 11.3978 22.344C12.3898 22.344 12.6778 23.112 12.6778 23.832C12.6778 25 12.1978 26.344 11.6218 27.368C10.9178 28.648 10.0218 29.512 8.96575 29.512C8.45375 29.512 8.03775 29.16 8.03775 28.648C8.03775 28.264 8.29375 27.848 8.70975 27.848C9.09375 27.848 9.25375 28.136 9.28575 28.392C9.31775 28.616 9.38175 28.824 9.60575 28.824C9.95775 28.824 10.3098 27.816 10.5658 26.984C10.8858 26.056 11.1738 24.872 11.1738 24.12C11.1738 23.752 11.0778 23.368 10.6938 23.368C9.98975 23.368 8.80575 24.712 8.35775 25.288C7.97375 25.8 7.65375 26.376 7.46175 26.92L6.62975 28.872C6.59775 28.968 6.54975 29 6.43775 29H5.41375C5.26975 29 5.23775 28.904 5.28575 28.776L8.70975 19.848C8.83775 19.512 8.91775 19.24 8.91775 19.096C8.91775 18.904 8.70975 18.776 8.42175 18.776H7.94175C7.87775 18.776 7.81375 18.712 7.84575 18.616L7.90975 18.328C7.94175 18.232 7.97375 18.2 8.13375 18.2H10.6618C10.7898 18.2 10.8538 18.264 10.8538 18.36C10.8538 18.456 10.7898 18.616 10.6938 18.856L8.26175 24.584ZM17.675 27.24L17.915 27.416C17.995 27.464 17.995 27.496 17.963 27.56C17.611 28.136 16.523 29.16 15.115 29.16C14.059 29.16 13.419 28.584 13.419 27.464C13.419 26.216 14.091 24.52 15.403 23.336C16.043 22.76 16.939 22.344 17.803 22.344C18.539 22.344 18.923 22.824 18.923 23.288C18.923 24.104 18.379 24.84 17.451 25.352C16.587 25.8 15.723 25.992 15.115 26.024C15.051 26.184 14.955 26.632 14.955 27.208C14.955 27.848 15.371 28.232 15.819 28.232C16.555 28.232 17.195 27.752 17.547 27.272C17.579 27.24 17.643 27.208 17.675 27.24ZM17.035 23.112C16.235 23.112 15.435 24.648 15.243 25.512C15.531 25.512 16.299 25.32 16.843 24.904C17.195 24.616 17.515 24.136 17.515 23.688C17.515 23.4 17.387 23.112 17.035 23.112ZM23.472 29V17.736H29.296C31.92 17.736 33.664 19.048 33.664 21.272C33.664 23.576 32.016 24.952 29.264 24.952H26.224V29H23.472ZM26.224 19.832V22.84H29.04C30.208 22.84 30.928 22.44 30.928 21.32C30.928 20.408 30.368 19.832 29.04 19.832H26.224ZM43.2644 23.576V26.68C43.2644 27.752 43.3124 28.824 43.3284 29H40.8644C40.8004 28.808 40.7844 28.296 40.7684 28.072C40.3204 28.776 39.3764 29.224 37.8084 29.224C35.5524 29.224 34.6404 27.848 34.6404 26.52C34.6404 24.36 36.5444 23.752 38.9764 23.752H40.7044V23.496C40.7044 22.824 40.4164 22.28 39.2004 22.28C38.0804 22.28 37.8244 22.696 37.7124 23.176H35.1044C35.1684 22.152 35.8884 20.504 39.1684 20.504C42.7524 20.504 43.2644 22.2 43.2644 23.576ZM40.7044 25.528V25.4C40.5124 25.384 39.9524 25.384 39.0244 25.384C37.6964 25.384 37.1684 25.736 37.1684 26.392C37.1684 26.936 37.6004 27.368 38.5604 27.368C39.9844 27.368 40.7044 26.712 40.7044 25.528ZM45.5263 29V22.984C45.5263 22.232 45.5263 21.48 45.5103 20.728H48.0543C48.1023 21.032 48.1343 21.944 48.1343 22.392C48.5983 21.304 49.6063 20.488 51.3183 20.52V22.904C49.4463 22.872 48.1343 23.624 48.1343 25.976V29H45.5263ZM52.7138 29V20.728H55.3218V29H52.7138ZM55.3218 19.176H52.7138V17.08H55.3218V19.176ZM56.9019 26.456H59.4939C59.7019 27.048 60.2459 27.432 61.3659 27.432C62.4859 27.432 62.7899 27.096 62.7899 26.696C62.7899 26.232 62.4379 26.008 60.7739 25.784C57.6219 25.336 57.1899 24.184 57.1899 23.176C57.1899 21.912 58.1339 20.504 61.0139 20.504C63.9259 20.504 64.9499 21.88 65.0619 23.064H62.5019C62.3739 22.68 62.0859 22.232 60.9179 22.232C59.9259 22.232 59.7499 22.616 59.7499 22.904C59.7499 23.256 60.0219 23.464 61.5579 23.688C64.9179 24.2 65.3499 25.32 65.3499 26.472C65.3499 27.976 64.2139 29.224 61.1899 29.224C58.9339 29.224 57.1579 28.264 56.9019 26.456ZM79.1434 26.44H74.1354L73.1594 29H70.3434L74.8714 17.736H78.3914L83.1594 29H80.1994L79.1434 26.44ZM74.8394 24.248H78.3914C77.3354 21.672 76.8234 20.344 76.5514 19.496H76.5354C76.2954 20.328 75.6874 22.04 74.8394 24.248ZM93.3426 23.16V28.072C93.3426 31.048 92.0466 32.712 88.5426 32.712C84.8626 32.712 84.2226 30.68 84.0786 29.768H86.7186C86.9106 30.296 87.3586 30.776 88.6866 30.776C90.3826 30.776 90.7666 29.688 90.7666 28.28V27.928C90.2866 28.6 89.6146 29.096 88.0146 29.096C85.6146 29.096 84.0146 27.224 84.0146 24.968C84.0146 22.408 85.8546 20.504 88.2226 20.504C89.9506 20.504 90.5586 21.192 90.7666 21.656C90.7826 21.368 90.7986 20.936 90.8146 20.728H93.3586C93.3426 21.544 93.3426 22.36 93.3426 23.16ZM86.6866 24.872C86.6866 26.072 87.3906 27.096 88.7346 27.096C90.0626 27.096 90.8146 26.312 90.8146 24.792C90.8146 23.448 90.1266 22.536 88.8146 22.536C87.4386 22.536 86.6866 23.56 86.6866 24.872ZM95.62 29V22.984C95.62 22.232 95.62 21.48 95.604 20.728H98.148C98.196 21.032 98.228 21.944 98.228 22.392C98.692 21.304 99.7 20.488 101.412 20.52V22.904C99.54 22.872 98.228 23.624 98.228 25.976V29H95.62ZM111.446 25.496H104.966C105.03 26.504 105.75 27.288 106.998 27.288C107.974 27.288 108.438 26.984 108.742 26.472H111.366C110.854 27.944 109.622 29.224 106.966 29.224C103.574 29.224 102.358 26.984 102.358 24.872C102.358 22.552 103.926 20.504 106.95 20.504C110.166 20.504 111.462 22.728 111.462 24.872C111.462 25.08 111.462 25.24 111.446 25.496ZM104.998 23.896H108.806C108.758 23.272 108.422 22.344 106.934 22.344C105.574 22.344 105.062 23.08 104.998 23.896ZM121.837 25.496H115.357C115.421 26.504 116.141 27.288 117.389 27.288C118.365 27.288 118.829 26.984 119.133 26.472H121.757C121.245 27.944 120.013 29.224 117.357 29.224C113.965 29.224 112.749 26.984 112.749 24.872C112.749 22.552 114.317 20.504 117.341 20.504C120.557 20.504 121.853 22.728 121.853 24.872C121.853 25.08 121.853 25.24 121.837 25.496ZM115.389 23.896H119.197C119.149 23.272 118.813 22.344 117.325 22.344C115.965 22.344 115.453 23.08 115.389 23.896ZM123.51 29V22.872C123.51 22.152 123.51 21.448 123.494 20.728H125.99C126.038 21.048 126.054 21.416 126.054 21.704C126.486 21.112 127.27 20.504 128.582 20.504C130.038 20.504 130.742 21.144 131.078 21.864C131.51 21.256 132.278 20.504 133.862 20.504C135.59 20.504 136.95 21.544 136.95 24.008V29H134.374V24.072C134.374 23.352 134.134 22.488 133.046 22.488C132.102 22.488 131.542 23.08 131.542 24.44V29H128.95V24.056C128.95 23.24 128.646 22.488 127.606 22.488C126.55 22.488 126.086 23.24 126.086 24.44V29H123.51ZM147.759 25.496H141.279C141.343 26.504 142.063 27.288 143.311 27.288C144.287 27.288 144.751 26.984 145.055 26.472H147.679C147.167 27.944 145.935 29.224 143.279 29.224C139.887 29.224 138.671 26.984 138.671 24.872C138.671 22.552 140.239 20.504 143.263 20.504C146.479 20.504 147.775 22.728 147.775 24.872C147.775 25.08 147.775 25.24 147.759 25.496ZM141.311 23.896H145.119C145.071 23.272 144.735 22.344 143.247 22.344C141.887 22.344 141.375 23.08 141.311 23.896ZM149.432 29V22.824C149.432 22.12 149.432 21.32 149.416 20.728H151.96C151.992 20.968 152.024 21.464 152.04 21.8C152.424 21.224 153.176 20.504 154.792 20.504C156.824 20.504 158.024 21.768 158.024 23.896V29H155.384V24.312C155.384 23.368 155.016 22.536 153.848 22.536C152.616 22.536 152.056 23.384 152.056 24.872V29H149.432ZM159.256 22.632V20.728H160.744V18.296H163.368V20.728H165.288V22.632H163.368V26.12C163.368 26.824 163.512 27.144 164.312 27.144C164.536 27.144 164.792 27.144 165.016 27.096V28.888C164.568 29.016 163.976 29.064 163.368 29.064C161.336 29.064 160.744 28.184 160.744 26.568V22.632H159.256Z" fill="white"/>
</svg>  