<svg xmlns="http://www.w3.org/2000/svg"><g fill="#fff"><path d="m8.6 2.5-1.7 1.7 1.6 1.6 1.7-1.7z"/><path d="m20 17.3 6.2 6.2 1.7-1.7-6.2-6.2z"/><path d="m6.7 8.5 1.7 1.7 6.8-6.8 2.4 2.4 1.7-1.7-4.1-4.1z"/><path d="m24.6 8.5 1.7 1.7 1.6-1.6-1.7-1.7z"/><path d="m6.5 22.7h8.7v2.4h-8.7z" transform="matrix(.7071 -.7071 .7071 .7071 -13.7436 14.671)"/><path d="m15.2 13.9h9v2.4h-9z" transform="matrix(.7071 -.7071 .7071 .7071 -4.9216 18.3252)"/><path d="m20.2 8.4 6.8 6.8-2.4 2.4 1.7 1.7 4.1-4.1-8.5-8.5z"/><path d="m2.5 21.8 1.7 1.7 1.6-1.6-1.7-1.7z"/><path d="m15.2 5.2h8.7v2.4h-8.7z" transform="matrix(.7071 -.7071 .7071 .7071 1.1663 15.7132)"/><path d="m0 15.2 8.5 8.5 1.7-1.7-6.8-6.8 2.4-2.4-1.7-1.7z"/><path d="m11.1 8.4 6.3 6.4 1.8-1.7-6.4-6.4z"/><path d="m20.6 25.1h2.4v2.3h-2.4z" transform="matrix(.7071 -.7071 .7071 .7071 -12.1345 23.1084)"/><path d="m5.3 6.5h2.4v8.7h-2.4z" transform="matrix(.7071 -.7071 .7071 .7071 -5.7677 7.7374)"/><path d="m14.1 15.1h2.4v9h-2.4z" transform="matrix(.7071 -.7071 .7071 .7071 -9.4225 16.5609)"/><path d="m15.2 27-2.4-2.4-1.7 1.7 4.1 4.1 8.5-8.5-1.7-1.7z"/><path d="m6.2 14.1h9v2.4h-9z" transform="matrix(.7071 -.7071 .7071 .7071 -7.6593 12.0576)"/><path d="m56.9 10.6c-.4 0-.8 0-1 0-.1 0-.2 0-.2 0s-.1 0-.2 0c-.3 0-.8 0-1.4 0-.1 0-.4 0-.4.2 0 .1.1.2.3.2.6 0 .7.2.7.4s-.1.6-.2.9c-.1.4-.3.9-.5 1.5-.6 1.9-1.3 4.5-1.6 5.4l-3.2-7.8v-.1c-.2-.4-.3-.6-.5-.6s-.3.2-.4.6l-3 8c-.3-1.1-1.7-5.5-2-6.5 0-.1-.1-.3-.1-.4-.1-.5-.2-.9-.2-1 0-.2 0-.2.1-.3s.2-.1.4-.1c.1 0 .3 0 .3-.2 0-.1-.1-.2-.4-.2-.6 0-1.2 0-1.5 0-.1 0-.2 0-.2 0s-.1 0-.3 0c-.4 0-.9 0-1.5 0-.1 0-.4 0-.4.2s.2.2.3.2c.2 0 .4 0 .6.1s.4.5.6 1.1l3.3 9.9c.1.4.2.6.4.6s.3-.2.6-.8v-.1c.7-1.4 2.7-6.9 3-7.7l3.2 7.7c.2.6.3.8.5.8.3 0 .3-.2.5-.8.8-2.5 2.4-7.3 3.1-9.2 0-.1.1-.2.1-.4.2-.7.4-1.2.7-1.3.2-.1.4-.1.5-.1.2 0 .3-.1.3-.2z"/><path d="m65.9 10.4c-4.5 0-6.5 3.2-6.5 6.2s2 6.2 6.3 6.2c3.8 0 6.5-2.6 6.5-6.4.1-3.8-2.4-6-6.3-6zm.5 11.4c-2.8 0-4.7-2.4-4.7-5.7 0-4.2 2.4-4.8 3.8-4.8 2.7 0 4.5 2.3 4.5 5.6 0 4.4-2.5 4.9-3.6 4.9z"/><path d="m88.2 22.1c-.1 0-.3 0-.4 0-.2 0-.9-.2-1.7-1s-1.7-2-2.8-3.4l-.5-.6c1.4-1.2 2-2.2 2-3.5 0-1.1-.7-1.9-1.1-2.2-.9-.6-2-.7-2.9-.7-.2 0-.6 0-1.1 0-.4 0-.9 0-1.1 0-.1 0-.3 0-.6 0-.4 0-1 0-1.5 0-.1 0-.4 0-.4.2s.2.2.3.2h.6c.5.1.6.3.6.8v3.3 2.7c0 1.4 0 2.7-.1 3.3-.1.5-.2.8-.4.8s-.4.1-.5.1-.3 0-.3.2c0 .1.1.2.4.2h1.3.6.5 1.8c.2 0 .4-.1.4-.2 0 0 0-.2-.2-.2s-.5 0-.8-.1c-.4-.1-.5-.3-.6-.8-.1-.7-.1-1.9-.1-3.3v-.2c0-.1 0-.1.1-.1h1.4c.1 0 .2 0 .2.1.1.1.4.5.7 1 .2.4.5.8.8 1.1.9 1.3 1.5 2 2.1 2.3.4.2.8.3 1.7.3h1.5c.1 0 .4 0 .4-.2-.1 0-.1-.1-.3-.1zm-5.4-7.9c0 1.4-.6 2-.9 2.3-.3.2-.5.3-1.1.3-.4 0-.9-.1-1.2-.2-.1 0-.1-.1-.1-.2v-4.7c0-.1 0-.1.1-.2.1 0 .4-.1.8-.1.9 0 2.4.6 2.4 2.8z"/><path d="m99.6 19.9c-.2 0-.2.2-.2.3 0 .3-.2.7-.4.9-.4.4-.9.4-1.8.4-1.2 0-1.6-.1-1.8-.3-.4-.3-.4-1.4-.4-3.3v-2.7c0-2.4 0-2.8 0-3.3 0-.6.2-.8.5-.8h.6c.1 0 .3 0 .3-.2s-.2-.2-.4-.2c-.3 0-.8 0-1.3 0-.4 0-.7 0-.8 0-.2 0-.5 0-.8 0-.4 0-.9 0-1.3 0-.1 0-.4 0-.4.2s.2.2.3.2h.5c.5.1.6.3.6.8v3.3 2.7c0 1.4 0 2.7-.1 3.3-.1.5-.2.8-.4.8s-.4.1-.5.1-.3 0-.3.2c0 .1.1.2.4.2h.5.6.9 1.9.5 2.1c.8 0 .9-.1 1-.5.1-.5.2-1.6.2-1.8.1-.1.1-.3 0-.3z"/><path d="m108.4 10.6c-.5 0-1.1 0-1.6 0-.3 0-.6 0-.8 0s-.5 0-.8 0c-.4 0-1 0-1.5 0-.1 0-.4 0-.4.2s.2.2.3.2h.6c.5.1.6.3.6.8v3.3 2.7c0 1.4 0 2.7-.1 3.3-.1.5-.2.8-.4.8s-.4.1-.5.1-.3 0-.3.2c0 .1.1.2.4.2h.5.6.9c.3 0 .8 0 1.3.1h.2c.6 0 1.2.1 1.8.1 1 0 3.6-.2 5.3-1.9.5-.5 1.7-2 1.7-4.4 0-2-.8-3.3-1.5-4-1.7-1.7-4.3-1.7-6.3-1.7zm-1.4 6.3v-2c0-1.2 0-2.6 0-3.1 0-.1 0-.2.2-.3.1-.1.7-.1 1-.1 1.9 0 3.3.5 4.4 1.5.4.4 1.5 1.6 1.5 3.8 0 1.8-.4 3.1-1.3 3.8-.9.8-1.9 1.1-3.5 1.1-1.5 0-1.9-.5-2-.6-.1-.2-.1-.9-.2-1.2 0-.1-.1-1.3-.1-2.9z"/><path d="m140.1 22.1c-.1 0-.3 0-.4 0-.2 0-.9-.2-1.7-1s-1.7-2-2.8-3.4l-.5-.6c1.4-1.2 2-2.2 2-3.5 0-1.1-.7-1.9-1.1-2.2-.9-.6-2-.7-2.9-.7-.2 0-.6 0-1.1 0-.4 0-.9 0-1.1 0-.1 0-.3 0-.6 0-.4 0-1 0-1.5 0-.1 0-.4 0-.4.2s.2.2.3.2h.6c.5.1.6.3.6.8v3.3 2.7c0 1.4 0 2.7-.1 3.3-.1.5-.2.8-.4.8s-.4.1-.5.1-.3 0-.3.2c0 .1.1.2.4.2h1.3.6.5 1.8c.2 0 .4-.1.4-.2 0 0 0-.2-.2-.2s-.5 0-.8-.1c-.4-.1-.5-.3-.6-.8-.1-.7-.1-1.9-.1-3.3v-.2c0-.1 0-.1.1-.1h1.4c.1 0 .2 0 .2.1.1.1.4.5.7 1 .2.4.5.8.8 1.1.9 1.3 1.5 2 2.1 2.3.4.2.8.3 1.7.3h1.5c.1 0 .4 0 .4-.2-.1 0-.1-.1-.3-.1zm-5.4-7.9c0 1.4-.6 2-.9 2.3-.3.2-.5.3-1.1.3-.4 0-.9-.1-1.2-.2-.1 0-.1-.1-.1-.2v-4.7c0-.1 0-.1.1-.2.1 0 .4-.1.8-.1.9 0 2.4.6 2.4 2.8z"/><path d="m151.1 20c-.2 0-.2.1-.2.3-.1.6-.3.9-.7 1.1s-1 .2-1.4.2c-1.6 0-1.8-.3-1.8-1.3 0-.3 0-1.1 0-1.8 0-.3 0-.5 0-.6v-1.2c0-.1 0-.1 0-.1h2.2c.6.1.8.3.8.6v.4.1c0 .1.1.2.2.2.2 0 .2-.2.2-.4 0-.1 0-.3 0-.5s0-.4 0-.5c0-.5.1-.8.1-1 0-.1 0-.1 0-.2s-.1-.2-.2-.2-.2.1-.3.2c-.1.1-.3.2-.7.2-.2 0-1.1 0-2.5 0 0 0-.1 0-.1-.1v-3.9c0-.1 0-.1.1-.1.3 0 1.9 0 2.2.1.8.1.9.3 1 .5s.1.4.1.5 0 .3.2.3.2-.2.2-.2c0-.1 0-.4.1-.7 0-.1 0-.3 0-.3 0-.5.1-.7.1-.9 0-.1 0-.1 0-.2s-.1-.2-.1-.2c-.1 0-.1 0-.2 0h-.1c-.1 0-.4.1-.7.1s-2.8 0-3.9 0c-.2 0-.5 0-.8 0h-.2c-.2 0-.4 0-.6 0s-.4 0-.7 0c-.1 0-.4 0-.4.2s.2.2.3.2h.6c.5.1.6.3.6.8v3.3 2.7c0 1.4 0 2.7-.1 3.3-.1.5-.2.8-.4.8s-.4.1-.5.1-.3 0-.3.2c0 .1.1.2.4.2h.5.6.9 1.6.5 2.2c.6 0 .8 0 .9-.4.1-.3.2-1.4.2-1.7.3 0 .3-.1.1-.1z"/><path d="m159.8 15.2-.4-.3c-1.2-.9-1.6-1.5-1.6-2.2 0-.9.7-1.5 1.8-1.5 1 0 1.4.4 1.7.7.3.4.4.9.4 1 0 .2.1.3.2.3.2 0 .2-.3.2-.5 0-.9 0-1.3 0-1.6 0-.1 0-.2 0-.3 0-.2-.1-.2-.3-.2-.5-.1-1.1-.3-2.1-.3-2.1 0-3.6 1.2-3.6 3 0 1.3.7 2.5 2.3 3.7l.7.6c1.3 1 1.5 1.7 1.5 2.4 0 .8-.7 1.7-2 1.7-.6 0-1.8-.2-2.2-1.5-.1-.3-.1-.6-.1-.8 0-.1 0-.3-.2-.3s-.2.3-.2.5c0 .3-.1 1.2-.1 2 0 .4.1.5.3.6.6.3 1.3.4 2.3.4s1.8-.2 2.5-.6c1.3-.8 1.5-2.1 1.5-2.8 0-1.5-.7-2.5-2.6-4z"/><path d="m173.1 10.4c-4.5 0-6.5 3.2-6.5 6.2s2 6.2 6.3 6.2c3.8 0 6.5-2.6 6.5-6.4s-2.4-6-6.3-6zm.5 11.4c-2.8 0-4.7-2.4-4.7-5.7 0-4.2 2.4-4.8 3.8-4.8 2.7 0 4.5 2.3 4.5 5.6-.1 4.4-2.6 4.9-3.6 4.9z"/><path d="m194.9 10.6c-.4 0-.9 0-1.3 0-.2 0-.4 0-.4 0-.9 0-1.4 0-1.7 0-.1 0-.4 0-.4.2s.2.2.3.2h.5c.5.1.6.3.6.8v3.3 1.9c0 1.7-.1 3-.9 3.8-.7.7-1.7.8-2.1.8-.5 0-1.2-.1-1.9-.6-.6-.5-1.2-1.3-1.2-3.8v-2.2c0-2.4 0-2.8 0-3.3 0-.6.2-.8.5-.8h.4c.1 0 .3 0 .3-.2s-.2-.2-.4-.2c-.3 0-.7 0-1.1 0-.3 0-.6 0-.8 0s-.5 0-.8 0c-.5 0-1 0-1.4 0-.1 0-.4 0-.4.2s.2.2.3.2h.6c.5.1.6.3.6.8v3.3 2.3c0 2 .4 3.3 1.4 4.2 1.2 1.1 2.8 1.1 3.5 1.1.9 0 2.1-.1 3.3-1.1 1.3-1.1 1.5-2.9 1.5-4.7v-1.7c0-2.4 0-2.8 0-3.3 0-.6.2-.8.5-.8h.4c.1 0 .3 0 .3-.2.2-.2-.1-.2-.2-.2z"/><path d="m211.5 22.1c-.1 0-.3 0-.4 0-.2 0-.9-.2-1.7-1s-1.7-2-2.8-3.4l-.5-.6c1.4-1.2 2-2.2 2-3.5 0-1.1-.7-1.9-1.1-2.2-.9-.6-2-.7-2.9-.7-.2 0-.6 0-1.1 0-.4 0-.9 0-1.1 0-.1 0-.3 0-.6 0-.4 0-1 0-1.5 0-.1 0-.4 0-.4.2s.2.2.3.2h.6c.5.1.6.3.6.8v3.3 2.7c0 1.4 0 2.7-.1 3.3-.1.5-.2.8-.4.8s-.4.1-.5.1-.3 0-.3.2c0 .1.1.2.4.2h1.3.6.5 1.8c.2 0 .4-.1.4-.2 0 0 0-.2-.2-.2s-.5 0-.8-.1c-.4-.1-.5-.3-.6-.8-.1-.7-.1-1.9-.1-3.3v-.2c0-.1 0-.1.1-.1h1.4c.1 0 .2 0 .2.1.1.1.4.5.7 1 .2.4.5.8.8 1.1.9 1.3 1.5 2 2.2 2.3.4.2.8.3 1.7.3h1.5c.1 0 .4 0 .4-.2-.2 0-.2-.1-.4-.1zm-5.4-7.9c0 1.4-.6 2-.9 2.3-.3.2-.5.3-1.1.3-.4 0-.9-.1-1.2-.2-.1 0-.1-.1-.1-.2v-4.7c0-.1 0-.1.1-.2.1 0 .4-.1.8-.1.9 0 2.4.6 2.4 2.8z"/><path d="m224.1 19.4c-.2 0-.2.1-.3.4s-.3.7-.5 1c-.6.7-1.5.9-2.8.9-2 0-4.8-1.7-4.8-5.5 0-1.8.4-3.1 1.4-4 .7-.6 1.6-1 2.9-1s2.6.4 3.1.9c.4.4.6.9.6 1.4 0 .1 0 .4.2.4s.2-.2.2-.4 0-.5 0-.8 0-.6 0-.9 0-.5.1-.7c0-.1 0-.1 0-.2s0-.2-.3-.2c-.2 0-.5-.1-.8-.1s-.5-.1-.8-.1c-.7-.1-1.3-.2-2.3-.2-2.1 0-3.7.5-5 1.7-1.7 1.6-1.8 3.7-1.8 4.3 0 1.9.7 3.5 1.9 4.6 1.3 1.2 3.1 1.7 5.4 1.7.9 0 2.2-.1 2.8-.4.3-.1.4-.2.4-.5.2-.5.3-1.9.3-2.1.3-.1.1-.2.1-.2z"/><path d="m236.2 20c-.2 0-.2.1-.2.3-.1.6-.3.9-.7 1.1s-1 .2-1.4.2c-1.6 0-1.8-.3-1.8-1.3 0-.3 0-1.1 0-1.8 0-.3 0-.5 0-.6v-1.2c0-.1 0-.1 0-.1h2.2c.6.1.8.3.8.6 0 .1 0 .3.1.4v.1c0 .1.1.2.2.2.2 0 .2-.2.2-.4 0-.1 0-.3 0-.5s0-.4 0-.5c0-.5.1-.8.1-1 0-.1 0-.1 0-.2s-.1-.2-.2-.2-.2.1-.3.2c-.1.1-.3.2-.7.2-.2 0-1.1 0-2.5 0 0 0-.1 0-.1-.1v-3.9c0-.1 0-.1.1-.1.3 0 1.9 0 2.2.1.8.1.9.3 1 .5s.1.4.1.5 0 .3.2.3.2-.2.2-.2c0-.1 0-.4.1-.7 0-.1 0-.3 0-.3 0-.5.1-.7.1-.9 0-.1 0-.1 0-.2 0-.2-.1-.2-.1-.2-.1 0-.1 0-.2 0h-.1c-.1 0-.4.1-.7.1s-2.8 0-3.9 0c-.2 0-.5 0-.8 0h-.2c-.2 0-.4 0-.6 0s-.4 0-.7 0c-.1 0-.4 0-.4.2s.2.2.3.2h.6c.5.1.6.3.6.8v3.3 2.7c0 1.4 0 2.7-.1 3.3-.1.5-.1.8-.4.8-.2 0-.4.1-.5.1s-.3 0-.3.2c0 .1.1.2.4.2h.5.6.9 1.6.5 2.2c.6 0 .8 0 .9-.4.1-.3.2-1.4.2-1.7.2 0 .2-.1 0-.1z"/><path d="m245 15.2-.4-.3c-1.2-.9-1.6-1.5-1.6-2.2 0-.9.7-1.5 1.8-1.5 1 0 1.4.4 1.7.7.3.4.4.9.4 1s0 .3.2.3.2-.3.2-.5c0-.9 0-1.3 0-1.6 0-.1 0-.2 0-.3 0-.2-.1-.2-.3-.2-.5-.1-1.1-.3-2.1-.3-2.1 0-3.7 1.2-3.7 3 0 1.3.7 2.5 2.3 3.7l.7.6c1.3 1 1.5 1.7 1.5 2.4 0 .8-.7 1.7-2 1.7-.6 0-1.8-.2-2.2-1.5-.1-.3-.1-.6-.1-.8 0-.1 0-.3-.2-.3s-.2.3-.2.5v.1c0 .3-.1 1.2-.1 2 0 .4.1.5.3.6.6.3 1.3.4 2.3.4s1.8-.2 2.5-.6c1.3-.8 1.5-2.1 1.5-2.8 0-1.6-.7-2.6-2.5-4.1z"/><path d="m264.6 22.1c-.2 0-.6 0-.8-.1-.4-.1-.5-.3-.6-.7-.1-.7-.1-1.9-.1-3.4v-2.7c0-2.4 0-2.8 0-3.3 0-.6.2-.8.5-.8h.5c.1 0 .3 0 .3-.2s-.3-.2-.4-.2c-.3 0-.8 0-1.1 0s-.6 0-.8 0-.5 0-.9 0-.8 0-1.1 0c-.1 0-.4 0-.4.2s.2.2.3.2c.2 0 .4 0 .5.1.3.1.5.3.5.8v3.3 2.7c0 1.5 0 2.7-.1 3.4-.1.5-.2.7-.4.7s-.4.1-.5.1-.3 0-.3.2c0 .1.1.2.4.2h1.2.7.7 1.7c.3 0 .4-.1.4-.2.1-.2 0-.3-.2-.3z"/><path d="m281.7 10.6c-.5 0-1 0-1.2 0-.1 0-.2 0-.3 0s-.3 0-.5 0c-.4 0-.8 0-1.3 0-.2 0-.5 0-.5.2s.2.2.3.2c.2 0 .6 0 .8.1.3.1.5.4.5 1.3l.2 6.9c-.1-.1-.6-.6-1.1-1.1-.8-.8-1.7-1.8-2.3-2.4-2.3-2.3-4.7-4.8-4.8-4.9s-.1-.1-.1-.2c-.2-.2-.3-.3-.5-.3-.3 0-.3.4-.3.6l-.1 9.2c0 1.3-.1 1.8-.4 1.9-.2.1-.5.1-.7.1-.1 0-.3 0-.3.2s.2.2.4.2h1.4.3.4 1.5c.1 0 .4 0 .4-.2s-.2-.2-.3-.2c-.2 0-.5 0-.8-.1-.2-.1-.5-.3-.5-1.7l-.2-6.4c.1.1.1.1.2.2.6.7 2 2.2 3.4 3.6.7.7 1.4 1.4 2.1 2.1 1 1 1.9 1.9 2.5 2.5.2.2.4.4.6.4s.3-.3.3-.5l.2-9.8c0-.9.1-1.2.5-1.3h.5c.3 0 .3-.1.3-.2-.2-.4-.4-.4-.6-.4z"/><path d="m290.3 15.2-.4-.3c-1.2-.9-1.6-1.5-1.6-2.2 0-.9.7-1.5 1.8-1.5 1 0 1.4.4 1.7.7.3.4.4.9.4 1s0 .3.2.3.2-.3.2-.5c0-.9 0-1.3 0-1.6 0-.1 0-.2 0-.3 0-.2-.1-.2-.3-.2-.5-.1-1.1-.3-2.1-.3-2.1 0-3.7 1.2-3.7 3 0 1.3.7 2.5 2.3 3.7l.7.6c1.3 1 1.5 1.7 1.5 2.4 0 .8-.7 1.7-2 1.7-.6 0-1.8-.2-2.2-1.5-.1-.3-.1-.6-.1-.8 0-.1 0-.3-.2-.3s-.2.3-.2.5v.1c0 .3-.1 1.2-.1 2 0 .4.1.5.3.6.6.3 1.3.4 2.3.4s1.8-.2 2.5-.6c1.3-.8 1.5-2.1 1.5-2.8.1-1.6-.6-2.6-2.5-4.1z"/><path d="m307.1 10.5s-.1 0-.3 0c0 0-.1 0-.2 0-.2 0-.6.1-1.1.1h-6.2c-.5 0-1.1 0-1.6-.1-.2 0-.4-.1-.5-.1s-.1-.1-.2-.1-.2.2-.2.3-.3 1.5-.3 1.8c0 .1 0 .3.2.3.1 0 .2-.1.2-.2s.1-.3.3-.5c.2-.3.5-.4 1.5-.4l2.3-.1v6.3c0 1.4 0 2.7-.1 3.3 0 .4-.1.8-.4.8-.2 0-.4.1-.5.1s-.3 0-.3.2c0 .1.1.2.4.2h1.2.7.7 1.7c.3 0 .4-.1.4-.2s-.1-.2-.3-.2-.6 0-.8-.1c-.4-.1-.5-.3-.6-.8-.1-.7-.1-1.9-.1-3.3v-6.3h1.9c1.5 0 1.8.5 1.8.8v.2c0 .2 0 .4.2.4s.2-.2.2-.3c0-.2 0-.6 0-1 0-.3 0-.7 0-.8.2-.2.2-.3 0-.3z"/><path d="m316.2 22.1c-.2 0-.6 0-.8-.1-.4-.1-.5-.3-.6-.7-.1-.7-.1-1.9-.1-3.4v-2.7c0-2.4 0-2.8 0-3.3 0-.6.2-.8.5-.8h.5c.1 0 .3 0 .3-.2s-.3-.2-.4-.2c-.3 0-.8 0-1.1 0s-.6 0-.8 0-.5 0-.9 0-.8 0-1.1 0c-.1 0-.4 0-.4.2s.2.2.3.2c.2 0 .4 0 .5.1.3.1.5.3.5.8v3.3 2.7c0 1.5 0 2.7-.1 3.4-.1.5-.2.7-.4.7s-.4.1-.5.1-.3 0-.3.2c0 .1.1.2.4.2h1.2.7.7 1.7c.3 0 .4-.1.4-.2.1-.2.1-.3-.2-.3z"/><path d="m330.5 10.5s-.1 0-.3 0c0 0-.1 0-.2 0-.2 0-.6.1-1.1.1h-6.2c-.5 0-1.1 0-1.6-.1-.2 0-.4-.1-.5-.1s-.1-.1-.2-.1-.2.2-.2.3-.3 1.5-.3 1.8c0 .1 0 .3.2.3.1 0 .2-.1.2-.2s.1-.3.3-.5c.2-.3.5-.4 1.5-.4l2.3-.1v6.3c0 1.4 0 2.7-.1 3.3 0 .4-.1.8-.4.8-.2 0-.4.1-.5.1s-.3 0-.3.2c0 .1.1.2.4.2h1.2.7.7 1.7c.3 0 .4-.1.4-.2s-.1-.2-.3-.2-.6 0-.8-.1c-.4-.1-.5-.3-.6-.8-.1-.7-.1-1.9-.1-3.3v-6.3h1.9c1.5 0 1.8.5 1.8.8v.2c0 .2 0 .4.2.4s.2-.2.2-.3c0-.2 0-.6 0-1 0-.3 0-.7 0-.8.1-.2.1-.3 0-.3z"/><path d="m346.5 10.6c-.4 0-.9 0-1.3 0-.2 0-.4 0-.4 0-.9 0-1.4 0-1.7 0-.1 0-.4 0-.4.2s.2.2.3.2h.5c.5.1.6.3.6.8v3.3 1.9c0 1.7-.1 3-.9 3.8-.7.7-1.7.8-2.1.8-.5 0-1.2-.1-1.9-.6-.6-.5-1.2-1.3-1.2-3.8v-2.2c0-2.4 0-2.8 0-3.3 0-.6.2-.8.5-.8h.4c.1 0 .3 0 .3-.2s-.2-.2-.4-.2c-.3 0-.7 0-1.1 0-.3 0-.6 0-.8 0s-.5 0-.8 0c-.5 0-1 0-1.4 0-.1 0-.4 0-.4.2s.2.2.3.2h.6c.5.1.6.3.6.8v3.3 2.3c0 2 .4 3.3 1.4 4.2 1.2 1.1 2.8 1.1 3.5 1.1.9 0 2.1-.1 3.3-1.1 1.3-1.1 1.5-2.9 1.5-4.7v-1.7c0-2.4 0-2.8 0-3.3 0-.6.2-.8.5-.8h.4c.1 0 .3 0 .3-.2.2-.2-.1-.2-.2-.2z"/><path d="m360.9 10.5c-.1 0-.1 0-.3 0 0 0-.1 0-.2 0-.2 0-.6.1-1.1.1h-6.2c-.5 0-1.1 0-1.6-.1-.2 0-.4-.1-.5-.1s-.1-.1-.2-.1c-.2 0-.2.2-.2.3s-.3 1.5-.3 1.8c0 .1 0 .3.2.3.1 0 .2-.1.2-.2s.1-.3.3-.5c.2-.3.5-.4 1.5-.4l2.3-.1v6.3c0 1.4 0 2.7-.1 3.3 0 .4-.1.8-.4.8-.2 0-.4.1-.5.1s-.3 0-.3.2c0 .1.1.2.4.2h1.2.7.7 1.7c.3 0 .4-.1.4-.2s-.1-.2-.3-.2-.6 0-.8-.1c-.4-.1-.5-.3-.6-.8-.1-.7-.1-1.9-.1-3.3v-6.3h1.9c1.5 0 1.8.5 1.8.8v.2c0 .2 0 .4.2.4s.2-.2.2-.3c0-.2 0-.6 0-1 0-.3 0-.7 0-.8.2-.1.2-.3 0-.3z"/><path d="m372.8 20c-.2 0-.2.1-.2.3-.1.6-.3.9-.7 1.1s-1 .2-1.4.2c-1.6 0-1.8-.3-1.8-1.3 0-.3 0-1.1 0-1.8 0-.3 0-.5 0-.6v-1.2c0-.1 0-.1 0-.1h2.2c.6.1.8.3.8.6v.4.1c0 .1.1.2.2.2.2 0 .2-.2.2-.4 0-.1 0-.3 0-.5s0-.4 0-.5c0-.5.1-.8.1-1 0-.1 0-.1 0-.2s-.1-.2-.2-.2-.2.1-.3.2c-.1.1-.3.2-.7.2-.2 0-1.1 0-2.5 0 0 0-.1 0-.1-.1v-3.9c0-.1 0-.1.1-.1.3 0 1.9 0 2.2.1.8.1.9.3 1 .5s.1.5.1.5c0 .1 0 .3.2.3s.2-.2.2-.2c0-.1 0-.5.1-.7 0-.1 0-.3 0-.3 0-.5.1-.7.1-.9 0-.1 0-.1 0-.2s0-.2-.1-.2-.1 0-.2 0h-.1c-.1 0-.4.1-.7.1s-2.8 0-3.9 0c-.2 0-.5 0-.8 0h-.2c-.2 0-.4 0-.6 0s-.4 0-.7 0c-.1 0-.4 0-.4.2s.2.2.3.2h.6c.5.1.6.3.6.8v3.3 2.7c0 1.4 0 2.7-.1 3.3-.1.5-.2.8-.4.8s-.4.1-.5.1-.3 0-.3.2c0 .1.1.2.4.2h.5.6.9 1.6.5 2.2c.6 0 .8 0 .9-.4.1-.3.2-1.4.2-1.7.3 0 .3-.1.1-.1z"/></g></svg>
