<svg width="104" height="36" viewBox="0 0 104 36" fill="none" xmlns="http://www.w3.org/2000/svg">
<path d="M10.0175 3.55603L8.03522 5.53594L9.90185 7.40493L11.8841 5.42266L10.0175 3.55603Z" fill="#F3B229"/>
<path d="M23.268 20.7685L30.4325 27.933L32.4147 25.9507L25.2503 18.7886L23.268 20.7685Z" fill="#F3B229"/>
<path d="M7.77795 10.5198L9.75786 12.5021L17.6728 4.58953L20.4904 7.40718L22.4727 5.42491L17.6728 0.625L7.77795 10.5198Z" fill="#F3B229"/>
<path d="M28.5612 10.5224L30.5434 12.5046L32.4148 10.6333L30.4325 8.651L28.5612 10.5224Z" fill="#F3B229"/>
<path d="M8.03699 31.0493L15.2005 23.8858L17.1829 25.8681L10.0194 33.0317L8.03699 31.0493Z" fill="#F3B229"/>
<path d="M18.1715 20.914L25.5887 13.4968L27.5711 15.4792L20.1539 22.8964L18.1715 20.914Z" fill="#F3B229"/>
<path d="M23.4639 10.3806L31.3788 18.2955L28.5659 21.1108L30.5458 23.093L35.3434 18.2955L25.4462 8.39832L23.4639 10.3806Z" fill="#F3B229"/>
<path d="M2.93805 25.951L4.92032 27.9332L6.78223 26.0713L4.79996 24.0891L2.93805 25.951Z" fill="#F3B229"/>
<path d="M18.1715 10.7183L25.3351 3.55471L27.3174 5.53708L20.1539 12.7006L18.1715 10.7183Z" fill="#F3B229"/>
<path d="M0 18.2979L9.89717 28.1951L11.8794 26.2128L3.96453 18.2979L6.7869 15.4732L4.80463 13.4909L0 18.2979Z" fill="#F3B229"/>
<path d="M12.8753 10.3759L20.297 17.7976L22.2769 15.8154L14.8576 8.39368L12.8753 10.3759V10.3759V10.3759Z" fill="#F3B229"/>
<path d="M23.4678 31.1624L25.4502 29.18L27.3174 31.0473L25.3351 33.0296L23.4678 31.1624Z" fill="#F3B229"/>
<path d="M2.93872 10.6354L4.92109 8.65301L12.0846 15.8166L10.1023 17.7989L2.93872 10.6354Z" fill="#F3B229"/>
<path d="M13.0735 20.7684L15.0559 18.7861L22.4764 26.2066L20.494 28.189L13.0735 20.7684Z" fill="#F3B229"/>
<path d="M17.6705 32.0036L14.8529 29.186L12.8706 31.1682L17.6705 35.9681L27.5748 26.0662L25.5925 24.084L17.6705 32.0036Z" fill="#F3B229"/>
<path d="M7.77374 21.1145L15.1993 13.689L17.1816 15.6713L9.75611 23.0969L7.77374 21.1145Z" fill="#F3B229"/>
<path d="M45.3632 4.53271C45.3245 4.33033 45.2268 4.14393 45.0824 3.99702C44.9899 3.94915 44.8868 3.9256 44.7827 3.92859C44.7048 3.92859 44.6576 3.92859 44.6576 3.86015C44.6576 3.79172 44.7237 3.79408 44.8251 3.79408C45.2216 3.79408 45.6369 3.81296 45.7077 3.81296C45.7785 3.81296 46.1089 3.79408 46.5478 3.79408C46.6517 3.79408 46.7059 3.81296 46.7059 3.86015C46.7059 3.90735 46.6446 3.92859 46.5691 3.92859C46.5048 3.92375 46.4403 3.93342 46.3803 3.95691C46.3118 3.98758 46.2977 4.0395 46.2977 4.12209C46.335 4.36209 46.391 4.5988 46.4652 4.83005C46.5927 5.33269 47.2959 7.63118 47.4328 8.05359H47.4564L48.9242 4.10558C49.0021 3.89083 49.0516 3.83419 49.1153 3.83419C49.179 3.83419 49.2357 3.94747 49.3372 4.19289L50.9112 7.99931H50.9324C51.0693 7.49195 51.6758 5.4908 51.9448 4.60586C51.9872 4.46232 52.0117 4.31411 52.0179 4.16457C52.0179 4.04658 51.9495 3.92859 51.6522 3.92859C51.579 3.92859 51.5271 3.90263 51.5271 3.86015C51.5271 3.81768 51.5837 3.79408 51.7017 3.79408C52.1005 3.79408 52.4097 3.81296 52.4875 3.81296C52.5654 3.81296 52.8651 3.79408 53.1153 3.79408C53.1979 3.79408 53.2521 3.80588 53.2521 3.85307C53.2521 3.90027 53.2167 3.92859 53.1483 3.92859C53.0579 3.92654 52.9679 3.9393 52.8816 3.96635C52.6976 4.03478 52.6173 4.33684 52.4545 4.77105C52.11 5.71499 51.3147 8.13382 50.9418 9.26891C50.8593 9.53557 50.8215 9.62524 50.7224 9.62524C50.6233 9.62524 50.602 9.53557 50.4864 9.25239L48.9124 5.45776H48.8959C48.7519 5.84478 47.7443 8.52556 47.4186 9.22171C47.2723 9.53557 47.2369 9.62524 47.1449 9.62524C47.0528 9.62524 47.041 9.54265 46.9726 9.34442L45.3632 4.53271Z" fill="#1A1919"/>
<path fill-rule="evenodd" clip-rule="evenodd" d="M57.7524 3.68561C55.4775 3.68561 54.6232 5.35873 54.6232 6.65665C54.6232 7.98524 55.5011 9.61353 57.6839 9.62297C59.6048 9.62297 60.8202 8.2519 60.8202 6.51742C60.8202 4.78293 59.6402 3.68561 57.7524 3.68561ZM59.7512 6.79522C59.7512 6.79705 59.7512 6.79888 59.7512 6.80071V6.78891C59.7512 6.79101 59.7512 6.79312 59.7512 6.79522ZM57.5306 4.04913C58.7729 4.04913 59.7491 5.09936 59.7512 6.79522C59.7488 8.97933 58.5259 9.23607 57.9955 9.24078C56.5418 9.24078 55.6663 7.98535 55.6663 6.40897C55.6663 4.5211 56.6598 4.04913 57.5306 4.04913Z" fill="#1A1919"/>
<path fill-rule="evenodd" clip-rule="evenodd" d="M63.5693 4.3724C63.5859 4.61075 63.5859 4.82785 63.5859 5.97709L63.6047 7.3104C63.6047 8.00655 63.6047 8.60595 63.567 8.92453C63.5363 9.144 63.4962 9.31155 63.3452 9.33986C63.2573 9.36206 63.1668 9.37238 63.0761 9.37054C62.9817 9.37054 62.9511 9.38234 62.9511 9.43426C62.9511 9.48617 63.003 9.50741 63.1044 9.50741C63.2918 9.50741 63.559 9.49924 63.762 9.49304C63.8863 9.48924 63.9865 9.48617 64.0295 9.48617C64.0677 9.48617 64.1564 9.48858 64.2742 9.49178C64.5059 9.49807 64.8499 9.50741 65.141 9.50741C65.2425 9.50741 65.2967 9.46966 65.2967 9.43426C65.2967 9.39886 65.2613 9.37054 65.2 9.37054C65.0767 9.36865 64.9537 9.3584 64.8319 9.33986C64.6006 9.31155 64.5581 9.144 64.5345 8.92453C64.4968 8.60595 64.4968 8.01127 64.4968 7.30332V7.19477C64.4953 7.17809 64.5013 7.16162 64.5131 7.14979C64.525 7.13795 64.5414 7.13195 64.5581 7.13341L65.2189 7.15229C65.2689 7.14748 65.3184 7.16572 65.3534 7.20185C65.4136 7.2719 65.5604 7.48083 65.7329 7.72646C65.8509 7.89458 65.9811 8.07989 66.1038 8.24962C66.5262 8.8325 66.8165 9.18883 67.1445 9.36582C67.397 9.48386 67.6763 9.53272 67.9539 9.50741H68.6619C68.7563 9.50741 68.8082 9.46966 68.8082 9.43426C68.8082 9.39886 68.7775 9.37054 68.7161 9.37054C68.6456 9.37065 68.5752 9.36353 68.5061 9.3493C68.1728 9.27613 67.8731 9.09435 67.6542 8.8325C67.2539 8.42184 66.8026 7.85078 66.241 7.14014C66.1636 7.0422 66.0841 6.94162 66.0023 6.83843C66.7646 6.21544 67.0005 5.70571 67.0005 5.14407C66.9998 4.7368 66.8097 4.35304 66.4861 4.10574C66.0643 3.86027 65.5782 3.7476 65.0914 3.78244C64.9774 3.78244 64.782 3.78694 64.5818 3.79154C64.3717 3.79637 64.1565 3.80132 64.0248 3.80132C63.9639 3.80132 63.8555 3.79852 63.7221 3.79508C63.509 3.78958 63.2323 3.78244 62.9841 3.78244C62.8732 3.78244 62.8189 3.79896 62.8189 3.84852C62.8189 3.89807 62.8637 3.91695 62.9487 3.91695C63.0482 3.91527 63.1477 3.92238 63.246 3.93819C63.4938 3.99011 63.5528 4.13406 63.5693 4.3724ZM64.5463 6.71339C64.4944 6.68743 64.4779 6.65911 64.4779 6.57652V4.27331C64.4779 4.21196 64.4944 4.18364 64.5463 4.16948C64.6777 4.13899 64.8129 4.12786 64.9475 4.13644C65.4006 4.13644 66.1086 4.44558 66.1086 5.51931C66.1086 6.1423 65.8985 6.49156 65.6625 6.65911C65.5045 6.76737 65.3121 6.81358 65.1221 6.7889C64.9276 6.79153 64.7336 6.76609 64.5463 6.71339Z" fill="#1A1919"/>
<path d="M71.4418 7.31061C71.4418 8.27815 71.4418 8.80203 71.5999 8.9389C71.758 9.07577 71.9279 9.10881 72.5155 9.10881C72.919 9.10881 73.2235 9.10881 73.4028 8.89407C73.5093 8.7644 73.5772 8.60739 73.5987 8.44098C73.5987 8.37254 73.6199 8.32535 73.6813 8.32535C73.7426 8.32535 73.745 8.36546 73.745 8.45278C73.7284 8.7454 73.6905 9.03643 73.6317 9.32356C73.5869 9.49111 73.5468 9.53122 73.1597 9.53122C72.6146 9.53122 72.2158 9.5147 71.8807 9.50763C71.5456 9.50055 71.2601 9.48875 70.9557 9.48875C70.8731 9.48875 70.7032 9.48875 70.5238 9.48875C70.3445 9.48875 70.1533 9.50527 70.0023 9.50527C69.9032 9.50527 69.8489 9.48403 69.8489 9.43211C69.8489 9.38019 69.8819 9.36839 69.9692 9.36839C70.0614 9.37032 70.1535 9.36 70.243 9.33772C70.3987 9.3094 70.4341 9.14185 70.4624 8.92239C70.5002 8.60381 70.5002 8.00441 70.5002 7.30825V5.9773C70.5002 4.82806 70.5002 4.61096 70.486 4.37261C70.4719 4.13427 70.4082 3.99032 70.1604 3.9384C70.078 3.92262 69.9941 3.9155 69.9102 3.91716C69.8253 3.91716 69.7805 3.89829 69.7805 3.84873C69.7805 3.79917 69.8347 3.78265 69.948 3.78265C70.3043 3.78265 70.781 3.80153 70.9863 3.80153C71.1916 3.80153 71.7226 3.78265 72.0152 3.78265C72.1238 3.78265 72.1781 3.79445 72.1781 3.84873C72.1781 3.90301 72.1309 3.91716 72.0388 3.91716C71.9401 3.91761 71.8416 3.92471 71.7438 3.9384C71.5385 3.97616 71.4772 4.10595 71.463 4.37261C71.4489 4.63928 71.4489 4.82806 71.4489 5.9773L71.4418 7.31061Z" fill="#1A1919"/>
<path fill-rule="evenodd" clip-rule="evenodd" d="M76.2511 4.37261C76.2676 4.61096 76.2676 4.82806 76.2676 5.97731L76.2794 7.31297C76.2794 8.00913 76.2794 8.60853 76.2417 8.9271C76.211 9.14657 76.1732 9.31412 76.0222 9.34244C75.9327 9.36458 75.8407 9.3749 75.7485 9.37312C75.6588 9.37312 75.6281 9.38491 75.6281 9.43683C75.6281 9.48875 75.6777 9.50999 75.7768 9.50999C75.8502 9.50999 75.9318 9.5062 76.0168 9.50225C76.1093 9.49795 76.206 9.49347 76.3007 9.49347H76.7349C76.8867 9.49347 77.0918 9.50912 77.3182 9.5264C77.3697 9.53034 77.4224 9.53436 77.4759 9.5383L77.5008 9.54015C77.7817 9.56088 78.0831 9.58314 78.349 9.58314C79.7484 9.58314 80.5366 9.0451 80.8858 8.69112C81.4274 8.11806 81.7231 7.35566 81.7094 6.56726C81.7288 5.85478 81.4658 5.16351 80.9779 4.644C80.1519 3.78265 78.8823 3.78265 77.9384 3.78265C77.6565 3.78265 77.3671 3.78939 77.1339 3.79481C76.9767 3.79847 76.845 3.80153 76.7585 3.80153C76.6679 3.80153 76.5311 3.79817 76.373 3.79429C76.1562 3.78897 75.8992 3.78265 75.6659 3.78265C75.5549 3.78265 75.5007 3.79917 75.5007 3.84873C75.5007 3.89829 75.5455 3.91716 75.6305 3.91716C75.7292 3.91541 75.8279 3.92252 75.9254 3.9384C76.1756 3.99032 76.2346 4.13427 76.2511 4.37261ZM77.228 8.34183C77.2115 8.19552 77.2115 7.61264 77.2115 6.8103L77.2162 5.864V4.34662C77.2074 4.27944 77.2483 4.21569 77.313 4.19559C77.473 4.15798 77.6371 4.14054 77.8015 4.14368C78.5909 4.10282 79.3648 4.37405 79.956 4.89883C80.4427 5.40432 80.7041 6.08535 80.6805 6.7867C80.6805 7.5678 80.5342 8.25452 80.0433 8.67457C79.5926 9.06866 79.0758 9.21969 78.3018 9.21969C77.7047 9.21969 77.4097 9.06158 77.313 8.91763C77.2503 8.73236 77.2215 8.53731 77.228 8.34183Z" fill="#1A1919"/>
<path fill-rule="evenodd" clip-rule="evenodd" d="M46.024 16.6696C46.0382 16.9103 46.0382 17.125 46.0382 18.2766L46.0476 19.6076C46.0476 20.3061 46.0476 20.9031 46.0122 21.2241C45.9815 21.4412 45.9438 21.6111 45.7927 21.6394C45.7032 21.6613 45.6112 21.6724 45.519 21.6724C45.427 21.6724 45.3963 21.6795 45.3963 21.7314C45.3963 21.7833 45.4529 21.8069 45.5497 21.8069C45.737 21.8069 46.0042 21.7979 46.2072 21.791C46.3315 21.7867 46.4317 21.7833 46.4747 21.7833C46.5129 21.7833 46.6017 21.786 46.7194 21.7896C46.9512 21.7966 47.2952 21.8069 47.5862 21.8069C47.6853 21.8069 47.7396 21.7715 47.7396 21.7314C47.7396 21.6913 47.7089 21.6724 47.6476 21.6724C47.5235 21.6686 47.3998 21.6576 47.2771 21.6394C47.0505 21.6111 47.0057 21.4412 46.9821 21.2241C46.9443 20.9031 46.9443 20.3108 46.9443 19.6028V19.6028V19.4966C46.9443 19.4518 46.9656 19.4353 47.0057 19.4353L47.6594 19.4518C47.7121 19.4445 47.7647 19.4651 47.7986 19.5061C47.8589 19.5664 48.0117 19.7855 48.1901 20.0414C48.3051 20.2063 48.4307 20.3864 48.549 20.5491C48.9738 21.1344 49.2617 21.4884 49.585 21.663C49.8376 21.7836 50.1182 21.8333 50.3968 21.8069H51.1189C51.2086 21.8069 51.2629 21.7715 51.2629 21.7314C51.2629 21.6913 51.2275 21.6724 51.1708 21.6724C51.0994 21.6706 51.0282 21.6619 50.9584 21.6465C50.6249 21.5782 50.325 21.3974 50.1089 21.1344C49.7066 20.7175 49.2509 20.1423 48.6865 19.4299C48.612 19.3357 48.5355 19.2392 48.457 19.1403C49.2216 18.5173 49.4576 18.0029 49.4576 17.4436C49.4561 17.0371 49.2661 16.6544 48.9431 16.4076C48.5226 16.1582 48.0363 16.0421 47.5485 16.0749C47.4313 16.0749 47.2326 16.0812 47.0305 16.0875C46.8215 16.0941 46.609 16.1008 46.4795 16.1008C46.4172 16.1008 46.3073 16.0969 46.1727 16.0921C45.9607 16.0846 45.6875 16.0749 45.4435 16.0749C45.3255 16.0749 45.2759 16.0914 45.2759 16.1457C45.2759 16.2 45.3231 16.2165 45.4034 16.2165C45.5014 16.2147 45.5993 16.2218 45.696 16.2377C45.9509 16.2896 46.0099 16.4289 46.024 16.6696ZM47.001 19.0107C46.9491 18.9894 46.9349 18.9588 46.9349 18.8738V16.5706C46.9349 16.5092 46.9491 16.4809 47.001 16.4644C47.134 16.4398 47.2694 16.4303 47.4045 16.4361C47.8529 16.4361 48.5608 16.7452 48.5608 17.8213C48.5608 18.4443 48.3508 18.7888 48.1148 18.9588C47.9578 19.0671 47.7658 19.1125 47.5768 19.0862C47.3822 19.0897 47.1881 19.0642 47.001 19.0107Z" fill="#1A1919"/>
<path d="M52.9478 18.2766C52.9478 17.125 52.9478 16.9102 52.9336 16.6695C52.9195 16.4288 52.8581 16.2896 52.608 16.2377C52.5105 16.222 52.4118 16.2149 52.313 16.2164C52.2304 16.2164 52.1808 16.1999 52.1808 16.1456C52.1808 16.0913 52.2351 16.0748 52.3508 16.0748C52.5537 16.0748 52.7755 16.0748 52.9667 16.0748C53.1578 16.0748 53.3348 16.0913 53.4386 16.0913C53.6746 16.0913 55.1873 16.0913 55.3265 16.0913C55.4657 16.0913 55.5908 16.063 55.6522 16.0489C55.6907 16.0356 55.7301 16.0254 55.7702 16.0182C55.8079 16.0182 55.8174 16.0489 55.8174 16.0843C55.8174 16.1197 55.782 16.2306 55.756 16.5798C55.756 16.653 55.7348 16.9904 55.7206 17.0778C55.7206 17.1155 55.6947 17.1604 55.6427 17.1604C55.5908 17.1604 55.5743 17.125 55.5743 17.0565C55.5763 16.9643 55.5619 16.8724 55.5318 16.7851C55.4775 16.6483 55.402 16.5492 55.0221 16.509C54.8923 16.4925 54.097 16.4807 53.946 16.4807C53.9083 16.4807 53.8941 16.502 53.8941 16.5539V18.4748C53.8941 18.5267 53.8941 18.555 53.946 18.555C54.1136 18.555 54.9867 18.555 55.159 18.5409C55.3312 18.5267 55.4539 18.5031 55.52 18.4276C55.5861 18.3521 55.605 18.3285 55.6427 18.3285C55.6805 18.3285 55.6947 18.3426 55.6947 18.3898C55.6947 18.437 55.6663 18.555 55.6357 18.942C55.6357 19.0931 55.605 19.3975 55.605 19.4518C55.605 19.506 55.605 19.5933 55.5365 19.5933C55.4681 19.5933 55.4681 19.5627 55.4681 19.5273C55.4668 19.4346 55.4573 19.3422 55.4398 19.2512C55.402 19.1025 55.2982 18.9892 55.015 18.9585C54.8711 18.942 54.1206 18.9326 53.9413 18.9326C53.9035 18.9326 53.8941 18.9656 53.8941 19.0105V19.6075C53.8941 19.8647 53.8941 20.5656 53.8941 20.7874C53.9083 21.3066 54.0286 21.4246 54.8003 21.4246C55.0398 21.4382 55.2797 21.4078 55.5082 21.3349C55.7065 21.2405 55.7961 21.0848 55.8504 20.7709C55.8646 20.686 55.8787 20.6553 55.933 20.6553C55.9873 20.6553 55.9944 20.719 55.9944 20.7945C55.9814 21.0765 55.9482 21.3573 55.8952 21.6346C55.8386 21.8305 55.7749 21.8305 55.487 21.8305C54.9183 21.8305 54.5029 21.814 54.1749 21.8092C53.8469 21.8045 53.6133 21.7856 53.3867 21.7856C53.3018 21.7856 53.1366 21.7856 52.9525 21.7856C52.7684 21.7856 52.5844 21.7998 52.431 21.7998C52.3342 21.7998 52.2776 21.7762 52.2776 21.7243C52.2776 21.6724 52.3106 21.6653 52.398 21.6653C52.491 21.6654 52.5837 21.6543 52.6741 21.6322C52.8274 21.6039 52.8628 21.434 52.8935 21.2169C52.9313 20.896 52.9313 20.2989 52.9313 19.6004L52.9478 18.2766Z" fill="#1A1919"/>
<path d="M58.5122 21.7171C58.3871 21.6628 58.3659 21.6274 58.3659 21.4599C58.3659 21.0398 58.3942 20.5867 58.4013 20.4664C58.4084 20.346 58.4343 20.2705 58.4933 20.2705C58.5523 20.2705 58.5689 20.339 58.5689 20.3979C58.5762 20.5292 58.5992 20.6591 58.6373 20.785C58.7692 21.267 59.2245 21.5876 59.7228 21.5496C60.4024 21.5496 60.7375 21.0776 60.7375 20.6835C60.7375 20.2894 60.6196 19.9755 59.9942 19.4729L59.6449 19.1991C58.8119 18.5478 58.524 18.0192 58.524 17.4057C58.524 16.5703 59.2202 15.9709 60.275 15.9709C60.6142 15.9665 60.9525 16.0086 61.2803 16.096C61.3487 16.1148 61.3865 16.1337 61.3865 16.188C61.3865 16.2847 61.3535 16.5042 61.3535 17.0965C61.3535 17.2641 61.3299 17.3325 61.2732 17.3325C61.2166 17.3325 61.1954 17.2877 61.1954 17.198C61.1823 17.0145 61.114 16.8393 60.9995 16.6954C60.8012 16.4432 60.4912 16.3054 60.1712 16.3272C59.6119 16.3272 59.2721 16.6529 59.2721 17.106C59.2721 17.4552 59.4491 17.7172 60.0768 18.1986L60.2868 18.3567C61.2071 19.0458 61.5281 19.5673 61.5281 20.2894C61.5378 20.8217 61.2696 21.3207 60.8201 21.6062C60.4558 21.8246 60.0364 21.9335 59.6119 21.92C59.2351 21.9316 58.8601 21.8624 58.5122 21.7171Z" fill="#1A1919"/>
<path fill-rule="evenodd" clip-rule="evenodd" d="M66.8284 15.9711C64.5535 15.9711 63.6992 17.6489 63.6992 18.9421C63.6992 20.2849 64.5842 21.9155 66.7576 21.9108C68.6808 21.9108 69.8962 20.5326 69.8962 18.8029C69.8962 17.0731 68.7162 15.9711 66.8284 15.9711ZM66.6112 16.3344C67.8502 16.3344 68.8271 17.3893 68.8271 19.086H68.8318C68.8318 21.2877 67.6024 21.5237 67.0714 21.5402C65.6177 21.5402 64.7446 20.2848 64.7446 18.7084C64.7446 16.8229 65.7381 16.3344 66.6112 16.3344Z" fill="#1A1919"/>
<path d="M72.4117 18.2764C72.4117 17.1248 72.4117 16.9101 72.3975 16.6694C72.3833 16.4287 72.3196 16.2895 72.0695 16.2375C71.9712 16.2217 71.8717 16.2146 71.7721 16.2163C71.6896 16.2163 71.6447 16.1998 71.6447 16.1455C71.6447 16.0912 71.6966 16.0747 71.8123 16.0747C72.2134 16.0747 72.6901 16.1007 72.919 16.1007C73.0984 16.1007 73.5798 16.0747 73.8488 16.0747C73.9644 16.0747 74.0164 16.0912 74.0164 16.1455C74.0164 16.1998 73.9715 16.2163 73.896 16.2163C73.8216 16.2167 73.7473 16.2238 73.6742 16.2375C73.4689 16.2729 73.4122 16.4074 73.3934 16.6694C73.3745 16.9313 73.3816 17.1248 73.3816 18.2764V19.336C73.3816 20.4333 73.5987 20.8982 73.9715 21.2026C74.2385 21.4163 74.5738 21.5261 74.9155 21.5118C75.305 21.5175 75.6813 21.37 75.9632 21.1012C76.3786 20.6835 76.3998 20.0038 76.3998 19.2133V18.2694C76.3998 17.1178 76.3998 16.903 76.388 16.6623C76.3762 16.4216 76.3101 16.2824 76.06 16.2305C75.9695 16.2153 75.8779 16.2082 75.7862 16.2092C75.7036 16.2092 75.6588 16.1927 75.6588 16.1384C75.6588 16.0841 75.7107 16.0676 75.8193 16.0676C76.2039 16.0676 76.6783 16.0936 76.6783 16.0936C76.7821 16.0936 77.2564 16.0676 77.5514 16.0676C77.6599 16.0676 77.7095 16.0841 77.7095 16.1384C77.7095 16.1927 77.667 16.2092 77.575 16.2092C77.5021 16.2094 77.4294 16.2165 77.3579 16.2305C77.1526 16.2659 77.0889 16.4004 77.0747 16.6623C77.0605 16.9242 77.0605 17.1178 77.0605 18.2694V19.0788C77.0605 19.9212 76.978 20.8133 76.3384 21.3584C75.9025 21.7363 75.3385 21.933 74.7621 21.9082C74.3633 21.9082 73.6341 21.8823 73.0819 21.382C72.6948 21.0327 72.4093 20.4734 72.4093 19.3761L72.4117 18.2764Z" fill="#1A1919"/>
<path fill-rule="evenodd" clip-rule="evenodd" d="M80.3643 16.6694C80.3808 16.9101 80.3808 17.1248 80.3808 18.2764L80.3997 19.6074C80.3997 20.3059 80.3997 20.9029 80.362 21.2239C80.3313 21.441 80.2935 21.6109 80.1425 21.6392C80.0529 21.6613 79.961 21.6724 79.8688 21.6723C79.7767 21.6723 79.7484 21.6793 79.7484 21.7312C79.7484 21.7832 79.8027 21.8068 79.8994 21.8068C80.0868 21.8068 80.354 21.7977 80.557 21.7908C80.6813 21.7866 80.7815 21.7832 80.8245 21.7832C80.8626 21.7832 80.9517 21.7858 81.0698 21.7894C81.3022 21.7964 81.6473 21.8068 81.9383 21.8068C82.0351 21.8068 82.0894 21.7714 82.0894 21.7312C82.0894 21.6911 82.0587 21.6723 81.9973 21.6723C81.8741 21.6685 81.7511 21.6575 81.6292 21.6392C81.3979 21.6109 81.3578 21.441 81.3319 21.2239C81.2941 20.9029 81.2941 20.3106 81.2941 19.6027V19.4965C81.2941 19.4516 81.3177 19.4351 81.3578 19.4351L82.0138 19.4516C82.0651 19.4447 82.1163 19.4653 82.1484 19.5059C82.2072 19.5648 82.3542 19.7749 82.5276 20.0229C82.6463 20.1927 82.7774 20.3802 82.9011 20.549C83.3236 21.1342 83.6115 21.4882 83.9395 21.6628C84.1911 21.7837 84.471 21.8334 84.7489 21.8068H85.4569C85.5512 21.8068 85.6032 21.7714 85.6032 21.7312C85.6032 21.6911 85.5725 21.6723 85.5111 21.6723C85.4397 21.6702 85.3686 21.6616 85.2987 21.6463C84.9654 21.5775 84.6657 21.3968 84.4492 21.1342C84.0617 20.7326 83.6263 20.1842 83.0894 19.5077C82.9952 19.389 82.898 19.2665 82.7973 19.1401C83.5619 18.5171 83.7979 18.0027 83.7979 17.4434C83.7977 17.0361 83.6064 16.6526 83.2811 16.4074C82.8617 16.1572 82.3759 16.0411 81.8888 16.0747C81.7736 16.0747 81.578 16.0809 81.3778 16.0872C81.1678 16.0939 80.9527 16.1007 80.8198 16.1007C80.7587 16.1007 80.6497 16.0968 80.5159 16.092C80.3035 16.0845 80.0285 16.0747 79.7838 16.0747C79.6658 16.0747 79.6139 16.0912 79.6139 16.1455C79.6139 16.1998 79.6634 16.2163 79.7437 16.2163C79.8432 16.2147 79.9427 16.2218 80.041 16.2375C80.2912 16.2895 80.3478 16.4287 80.3643 16.6694ZM81.3437 19.0107C81.2894 18.9894 81.2753 18.9588 81.2753 18.8738V16.5706C81.2753 16.5093 81.2894 16.4809 81.3437 16.4644C81.4759 16.4399 81.6105 16.4304 81.7449 16.4361C82.1956 16.4361 82.9035 16.7452 82.9035 17.8213C82.9035 18.4443 82.6935 18.7889 82.4575 18.9588C82.3002 19.0665 82.1084 19.1119 81.9195 19.0862C81.7249 19.09 81.5308 19.0646 81.3437 19.0107Z" fill="#1A1919"/>
<path d="M87.366 21.0849C86.7752 20.5273 86.436 19.7537 86.4262 18.9413C86.4165 18.129 86.7369 17.3475 87.3141 16.7758C87.8569 16.2732 88.5766 15.9711 89.707 15.9711C90.0742 15.9702 90.4409 15.9962 90.8043 16.049C91.0946 16.0844 91.3376 16.1575 91.5642 16.1764C91.6444 16.1764 91.6775 16.2236 91.6775 16.2684C91.6775 16.3133 91.6539 16.4171 91.6397 16.6838C91.6255 16.9504 91.6397 17.3516 91.6161 17.5026C91.6161 17.6159 91.5925 17.6773 91.5241 17.6773C91.4556 17.6773 91.4509 17.6159 91.4509 17.5097C91.4369 17.2499 91.3316 17.0033 91.1536 16.8136C90.9176 16.5493 90.3158 16.3416 89.6173 16.3416C89.1017 16.3069 88.5931 16.4764 88.2014 16.8136C87.6469 17.3209 87.4935 18.0383 87.4935 18.7746C87.4935 20.5775 88.8669 21.4719 89.8816 21.4719C90.5542 21.4719 90.9648 21.3987 91.2645 21.0471C91.3889 20.9038 91.4778 20.7332 91.5241 20.5492C91.5477 20.4265 91.5642 20.3982 91.6232 20.3982C91.6822 20.3982 91.6916 20.4501 91.6916 20.5114C91.6606 20.851 91.6046 21.1878 91.5241 21.5191C91.5079 21.6237 91.4324 21.7094 91.3306 21.7385C90.8871 21.8682 90.4261 21.9279 89.9642 21.9155C88.9259 21.9155 88.0551 21.6866 87.366 21.0849Z" fill="#1A1919"/>
<path d="M94.4998 18.2766C94.4998 17.125 94.4998 16.9102 94.4998 16.6695C94.4998 16.4288 94.4219 16.2896 94.1718 16.2377C94.0743 16.2218 93.9756 16.2147 93.8768 16.2164C93.7942 16.2164 93.747 16.1999 93.747 16.1456C93.747 16.0913 93.8013 16.0748 93.9098 16.0748C94.1199 16.0748 94.337 16.0748 94.5281 16.0748C94.7193 16.0748 94.901 16.0913 95.0001 16.0913C95.2361 16.0913 96.7487 16.0913 96.888 16.0913C97.0272 16.0913 97.1499 16.063 97.2113 16.0489C97.25 16.0365 97.2894 16.0262 97.3292 16.0182C97.3717 16.0182 97.3764 16.0489 97.3764 16.0843C97.3485 16.2483 97.3296 16.4137 97.3198 16.5798C97.3198 16.653 97.2986 16.9904 97.282 17.0778C97.282 17.1155 97.2584 17.1604 97.2065 17.1604C97.1546 17.1604 97.1357 17.125 97.1357 17.0565C97.137 16.9639 97.121 16.8719 97.0885 16.7851C97.0366 16.6483 96.9611 16.5492 96.5835 16.509C96.4561 16.4925 95.6585 16.4807 95.5074 16.4807C95.4697 16.4807 95.4532 16.502 95.4532 16.5539V18.4748C95.4532 18.5267 95.465 18.555 95.5074 18.555C95.6726 18.555 96.5481 18.555 96.7204 18.5409C96.8514 18.5493 96.9808 18.509 97.0838 18.4276C97.1357 18.3662 97.1664 18.3285 97.2065 18.3285C97.2467 18.3285 97.2584 18.3426 97.2584 18.3898C97.2584 18.437 97.2254 18.555 97.1971 18.942C97.1971 19.0931 97.1664 19.3975 97.1664 19.4518C97.1664 19.506 97.1664 19.5933 97.098 19.5933C97.0797 19.5955 97.0613 19.5894 97.0481 19.5766C97.0348 19.5638 97.028 19.5457 97.0295 19.5273C97.0282 19.4346 97.0187 19.3422 97.0012 19.2512C96.9611 19.1025 96.8549 18.9892 96.5741 18.9585C96.4301 18.942 95.6797 18.9326 95.5027 18.9326C95.465 18.9326 95.4532 18.9656 95.4532 19.0105V19.6075C95.4532 19.8647 95.4532 20.5656 95.4532 20.7874C95.4697 21.3066 95.5924 21.4246 96.3641 21.4246C96.6036 21.4383 96.8435 21.408 97.072 21.3349C97.2679 21.2405 97.3599 21.0848 97.4142 20.7709C97.426 20.686 97.4425 20.6553 97.4968 20.6553C97.5511 20.6553 97.5558 20.719 97.5558 20.7945C97.5436 21.0765 97.5112 21.3572 97.459 21.6346C97.4048 21.8305 97.334 21.8305 97.0484 21.8305C96.4821 21.8305 96.0644 21.814 95.7387 21.8092C95.4131 21.8045 95.1771 21.7856 94.9529 21.7856C94.8679 21.7856 94.7004 21.7856 94.5187 21.7856C94.337 21.7856 94.1458 21.7998 93.9948 21.7998C93.891 21.7998 93.8438 21.7762 93.8438 21.7243C93.8438 21.6724 93.8744 21.6653 93.9641 21.6653C94.0564 21.6654 94.1483 21.6543 94.2379 21.6322C94.3889 21.6039 94.4266 21.434 94.4573 21.2169C94.4927 20.896 94.4927 20.2989 94.4927 19.6004L94.4998 18.2766Z" fill="#1A1919"/>
<path d="M100.064 21.7175C99.944 21.6632 99.918 21.6278 99.918 21.4602C99.918 21.0402 99.9487 20.5871 99.9581 20.4667C99.9676 20.3464 99.9865 20.2709 100.045 20.2709C100.104 20.2709 100.121 20.3393 100.121 20.3983C100.128 20.5298 100.152 20.6598 100.192 20.7853C100.323 21.267 100.777 21.5878 101.275 21.5499C101.955 21.5499 102.29 21.0779 102.29 20.6839C102.29 20.2898 102.176 19.9759 101.546 19.4733L101.199 19.1995C100.366 18.5482 100.078 18.0196 100.078 17.406C100.078 16.5706 100.775 15.9713 101.827 15.9713C102.168 15.9679 102.508 16.0116 102.837 16.101C102.906 16.1199 102.943 16.1388 102.943 16.1931C102.943 16.2898 102.915 16.5093 102.915 17.1016C102.915 17.2692 102.889 17.3376 102.828 17.3376C102.766 17.3376 102.752 17.2928 102.752 17.2031C102.738 17.0199 102.67 16.845 102.556 16.7004C102.358 16.4487 102.048 16.3109 101.728 16.3323C101.169 16.3323 100.829 16.658 100.829 17.1111C100.829 17.4603 101.004 17.7223 101.634 18.2037L101.844 18.3618C102.762 19.0508 103.087 19.5724 103.087 20.2945C103.096 20.8266 102.828 21.3252 102.379 21.6113C102.016 21.8288 101.597 21.9377 101.173 21.9251C100.793 21.9364 100.415 21.8656 100.064 21.7175Z" fill="#1A1919"/>
<path d="M46.0381 30.5763C46.0381 29.427 46.0381 29.2146 46.0239 28.9692C46.0098 28.7238 45.9343 28.5846 45.7667 28.5468C45.6773 28.5242 45.5851 28.5147 45.493 28.5185C45.4175 28.5185 45.3726 28.502 45.3726 28.4359C45.3726 28.3698 45.434 28.3793 45.552 28.3793C45.8422 28.3793 46.3189 28.4005 46.5384 28.4005C46.7578 28.4005 47.1755 28.3793 47.4634 28.3793C47.5625 28.3793 47.6215 28.3958 47.6215 28.4359C47.6215 28.476 47.5767 28.5185 47.4988 28.5185C47.4197 28.5168 47.3407 28.5232 47.2628 28.5374C47.0599 28.5751 46.9985 28.7049 46.9867 28.9692C46.9749 29.2335 46.9679 29.427 46.9679 30.5763V31.9072C46.9679 32.6411 46.9679 33.2405 46.9985 33.5591C47.0245 33.7644 47.0764 33.8966 47.3006 33.9272C47.4295 33.9467 47.5596 33.9578 47.69 33.9603C47.7726 33.9603 47.808 33.9815 47.808 34.0216C47.808 34.0617 47.7513 34.0948 47.6664 34.0948C47.1661 34.0948 46.687 34.0735 46.4865 34.0735C46.2859 34.0735 45.8351 34.0948 45.5425 34.0948C45.4458 34.0948 45.3891 34.0735 45.3891 34.0216C45.3891 33.9697 45.4198 33.9603 45.5119 33.9603C45.6041 33.9603 45.696 33.9492 45.7856 33.9272C45.9366 33.8966 45.9815 33.7715 46.0051 33.5497C46.0405 33.2311 46.0405 32.6317 46.0405 31.8978L46.0381 30.5763Z" fill="#1A1919"/>
<path d="M51.0764 33.087C51.0929 33.677 51.1896 33.8752 51.343 33.9271C51.4705 33.9668 51.6037 33.9851 51.7371 33.9814C51.8221 33.9814 51.8645 33.9956 51.8645 34.0428C51.8645 34.09 51.7985 34.1159 51.6923 34.1159C51.1991 34.1159 50.8923 34.0947 50.7483 34.0947C50.6823 34.0947 50.3259 34.1159 49.9295 34.1159C49.8327 34.1159 49.7643 34.1159 49.7643 34.0428C49.7643 33.9696 49.8091 33.9814 49.8823 33.9814C49.9982 33.9826 50.1139 33.9699 50.2268 33.9436C50.425 33.8823 50.4628 33.6605 50.4628 32.9997L50.5336 28.516C50.5336 28.365 50.5525 28.2588 50.6303 28.2588C50.7082 28.2588 50.7814 28.3579 50.9112 28.4948C51.0008 28.5962 52.1548 29.8304 53.2592 30.9278C53.776 31.4446 54.7978 32.5372 54.9253 32.6552H54.9654L54.8899 29.2546C54.8899 28.7827 54.8096 28.6482 54.6303 28.5703C54.5 28.5375 54.3656 28.524 54.2315 28.5302C54.1394 28.5302 54.1064 28.5042 54.1064 28.4594C54.1064 28.4145 54.1937 28.3909 54.307 28.3909C54.7011 28.3909 55.0645 28.4122 55.2226 28.4122C55.3075 28.4122 55.5931 28.3909 55.9636 28.3909C56.0627 28.3909 56.1406 28.3909 56.1406 28.4594C56.1406 28.5278 56.0934 28.5302 56.0013 28.5302C55.9222 28.527 55.843 28.5333 55.7654 28.549C55.553 28.6128 55.494 28.7709 55.4869 29.1956L55.4019 33.9743C55.4019 34.1419 55.3713 34.2103 55.3028 34.2103C55.2344 34.2103 55.1282 34.123 55.0456 34.0428C54.5736 33.5849 53.599 32.5938 52.8108 31.8127C51.9825 30.9938 51.1424 30.0475 51.0056 29.9036H50.9867L51.0764 33.087Z" fill="#1A1919"/>
<path d="M58.5995 34.0309C58.4791 33.9743 58.4579 33.9365 58.4579 33.7713C58.4579 33.356 58.4862 32.9005 58.4933 32.7778C58.5004 32.6551 58.524 32.582 58.5853 32.582C58.6467 32.582 58.6608 32.6504 58.6608 32.7117C58.668 32.8415 58.691 32.9699 58.7293 33.094C58.8609 33.5755 59.3146 33.8967 59.8124 33.861C60.4921 33.861 60.8272 33.4008 60.8272 32.9973C60.8272 32.6291 60.7139 32.2893 60.0862 31.7843L59.7369 31.5129C58.9015 30.8593 58.616 30.333 58.616 29.7171C58.616 28.8817 59.3098 28.287 60.3646 28.287C60.7046 28.2827 61.0437 28.3248 61.3723 28.4121C61.4407 28.4286 61.4785 28.4475 61.4785 28.5041C61.4785 28.6056 61.4502 28.8227 61.4502 29.4127C61.4502 29.5802 61.4266 29.6487 61.3652 29.6487C61.3039 29.6487 61.2873 29.6038 61.2873 29.5094C61.2736 29.3287 61.2062 29.1561 61.0938 29.0139C60.8981 28.7594 60.5882 28.6194 60.2679 28.641C59.7062 28.641 59.3664 28.9667 59.3664 29.4198C59.3664 29.769 59.5411 30.0333 60.1688 30.5124L60.3812 30.6705C61.2968 31.3596 61.6224 31.8834 61.6224 32.6032C61.6327 33.1356 61.3643 33.6348 60.9145 33.92C60.5523 34.1394 60.1341 34.2484 59.711 34.2338C59.3303 34.2452 58.9515 34.176 58.5995 34.0309Z" fill="#1A1919"/>
<path d="M65.6224 28.8041L64.4944 28.8324C64.0507 28.8489 63.8737 28.8843 63.7605 29.0542C63.7072 29.1332 63.6666 29.22 63.6401 29.3114C63.6259 29.3752 63.6047 29.4035 63.5599 29.4035C63.515 29.4035 63.4891 29.3681 63.4891 29.2831C63.4891 29.1628 63.633 28.4737 63.6519 28.4123C63.6755 28.3109 63.6967 28.2708 63.7392 28.2708C63.8442 28.3094 63.9524 28.3386 64.0625 28.3581C64.2843 28.3793 64.5722 28.3958 64.8224 28.3958H67.8265C68.0002 28.3964 68.1738 28.3838 68.3456 28.3581C68.4139 28.3412 68.4833 28.3294 68.5533 28.3227C68.6052 28.3227 68.6123 28.3651 68.6123 28.4784C68.6123 28.6389 68.5887 29.1628 68.5887 29.3586C68.5887 29.4365 68.5675 29.4813 68.5203 29.4813C68.4731 29.4813 68.4447 29.4412 68.4353 29.3327V29.2454C68.4188 29.0495 68.2135 28.8371 67.5386 28.823L66.5946 28.7994V31.9073C66.5946 32.6152 66.5946 33.2028 66.6347 33.5285C66.6536 33.7409 66.7008 33.906 66.9274 33.9367C67.0547 33.9562 67.1832 33.9673 67.312 33.9698C67.397 33.9698 67.4347 33.991 67.4347 34.0311C67.4347 34.0712 67.3734 34.1043 67.2908 34.1043C66.7905 34.1043 66.3162 34.083 66.1109 34.083C65.9339 34.083 65.4548 34.1043 65.1528 34.1043C65.056 34.1043 64.9994 34.083 64.9994 34.0311C64.9994 33.9792 65.0324 33.9698 65.1221 33.9698C65.2144 33.9702 65.3063 33.9591 65.3958 33.9367C65.5492 33.906 65.5917 33.7409 65.6153 33.5238C65.653 33.2028 65.653 32.6034 65.653 31.9073L65.6224 28.8041Z" fill="#1A1919"/>
<path d="M71.1916 30.5763C71.1916 29.427 71.1916 29.2146 71.1774 28.9692C71.1633 28.7238 71.083 28.5846 70.9202 28.5468C70.83 28.5242 70.737 28.5147 70.6441 28.5185C70.5686 28.5185 70.5237 28.502 70.5237 28.4359C70.5237 28.3698 70.5827 28.3793 70.7031 28.3793C70.9934 28.3793 71.4724 28.4005 71.6919 28.4005C71.9113 28.4005 72.3267 28.3793 72.6146 28.3793C72.7137 28.3793 72.7727 28.3958 72.7727 28.4359C72.7727 28.476 72.7278 28.5185 72.6523 28.5185C72.5732 28.5167 72.4941 28.523 72.4163 28.5374C72.2134 28.5751 72.1497 28.7049 72.1379 28.9692C72.1261 29.2335 72.1214 29.427 72.1214 30.5763V31.9072C72.1214 32.6411 72.1214 33.2405 72.1497 33.5591C72.1756 33.7644 72.2252 33.8966 72.4565 33.9272C72.5846 33.947 72.7139 33.9581 72.8435 33.9603C72.9261 33.9603 72.9615 33.9815 72.9615 34.0216C72.9615 34.0617 72.8977 34.0948 72.8151 34.0948C72.3172 34.0948 71.8405 34.0735 71.6352 34.0735C71.4299 34.0735 70.9839 34.0948 70.6795 34.0948C70.5804 34.0948 70.5285 34.0735 70.5285 34.0216C70.5285 33.9697 70.5591 33.9603 70.6512 33.9603C70.7426 33.9603 70.8338 33.9492 70.9226 33.9272C71.0736 33.8966 71.1184 33.7715 71.142 33.5497C71.1821 33.2311 71.1821 32.6317 71.1821 31.8978L71.1916 30.5763Z" fill="#1A1919"/>
<path d="M76.8033 28.8037L75.6753 28.8391C75.2364 28.8556 75.0523 28.891 74.9367 29.0609C74.8793 29.1398 74.8369 29.2286 74.8116 29.3229C74.7927 29.3866 74.7715 29.4149 74.7267 29.4149C74.6818 29.4149 74.6606 29.3795 74.6606 29.2945C74.6606 29.1742 74.8022 28.4851 74.8163 28.4238C74.8399 28.3223 74.8612 28.2822 74.9084 28.2822C75.0147 28.3216 75.1245 28.3508 75.2364 28.3695C75.4558 28.3907 75.7414 28.4072 75.9915 28.4072H78.9932C79.1686 28.4079 79.3437 28.3953 79.5171 28.3695C79.5838 28.3528 79.6517 28.3409 79.7201 28.3341C79.772 28.3341 79.7814 28.3766 79.7814 28.4898C79.7814 28.6503 79.7578 29.1742 79.7578 29.3701C79.7578 29.4479 79.7342 29.4928 79.6918 29.4928C79.6493 29.4928 79.6139 29.4526 79.6044 29.3441V29.2568C79.5903 29.0609 79.3826 28.8485 78.7124 28.8344L77.7543 28.8108V31.9069C77.7543 32.6148 77.7543 33.2024 77.7921 33.5281C77.8157 33.7405 77.8605 33.9057 78.0871 33.9363C78.2144 33.9556 78.3429 33.9667 78.4717 33.9694C78.559 33.9694 78.5968 33.9906 78.5968 34.0307C78.5968 34.0709 78.5354 34.1039 78.4505 34.1039C77.9526 34.1039 77.4735 34.0827 77.2588 34.0827C77.0889 34.0827 76.6098 34.1039 76.3148 34.1039C76.2181 34.1039 76.1638 34.0827 76.1638 34.0307C76.1638 33.9788 76.1968 33.9694 76.2865 33.9694C76.3772 33.9696 76.4676 33.9585 76.5555 33.9363C76.7113 33.9057 76.7561 33.7405 76.7797 33.5234C76.8151 33.2024 76.8151 32.603 76.8151 31.9069L76.8033 28.8037Z" fill="#1A1919"/>
<path d="M82.0469 30.5759C82.0469 29.4266 82.0469 29.2142 82.0304 28.9688C82.0139 28.7234 81.9549 28.5936 81.7048 28.537C81.6081 28.5209 81.5101 28.5146 81.4121 28.5181C81.3295 28.5181 81.2823 28.5016 81.2823 28.4473C81.2823 28.393 81.3343 28.3789 81.4499 28.3789C81.8487 28.3789 82.3278 28.4001 82.5543 28.4001C82.736 28.4001 83.2103 28.3789 83.4864 28.3789C83.5997 28.3789 83.654 28.3954 83.654 28.4473C83.654 28.4992 83.6068 28.5181 83.5313 28.5181C83.4577 28.5166 83.3841 28.5229 83.3118 28.537C83.1089 28.5747 83.0451 28.7045 83.031 28.9688C83.0168 29.2331 83.0168 29.4266 83.0168 30.5759V31.6354C83.0168 32.7351 83.2363 33.2 83.6068 33.4997C83.8722 33.7166 84.2084 33.8275 84.5507 33.8112C84.939 33.8162 85.314 33.6698 85.5961 33.403C86.0115 32.9853 86.0327 32.3056 86.0327 31.5151V30.5712C86.0327 29.4219 86.0327 29.2095 86.0185 28.9641C86.0044 28.7187 85.9454 28.5889 85.6952 28.5323C85.6056 28.5171 85.5147 28.5108 85.4239 28.5134C85.3366 28.5134 85.2894 28.4969 85.2894 28.4426C85.2894 28.3883 85.3436 28.3741 85.4498 28.3741C85.8392 28.3741 86.3159 28.3954 86.323 28.3954C86.415 28.3954 86.8917 28.3741 87.189 28.3741C87.2929 28.3741 87.3448 28.3907 87.3448 28.4426C87.3448 28.4945 87.3023 28.5134 87.2103 28.5134C87.1366 28.5117 87.0631 28.5181 86.9908 28.5323C86.7831 28.57 86.7241 28.6998 86.7076 28.9641C86.6911 29.2284 86.6935 29.4219 86.6935 30.5712V31.3806C86.6935 32.223 86.6085 33.1174 85.9737 33.6625C85.5374 34.0396 84.9734 34.2355 84.3973 34.21C83.9962 34.21 83.2693 34.1864 82.7171 33.6885C82.3301 33.3392 82.0422 32.7776 82.0422 31.6779L82.0469 30.5759Z" fill="#1A1919"/>
<path d="M91.0143 28.8039L89.8863 28.8322C89.445 28.8487 89.2657 28.8841 89.1524 29.054C89.0965 29.1348 89.052 29.223 89.0202 29.316C89.0084 29.3797 88.9825 29.408 88.9376 29.408C88.8928 29.408 88.8692 29.3726 88.8692 29.2876C88.8692 29.1673 89.0132 28.4782 89.0273 28.4169C89.0533 28.3154 89.0769 28.2753 89.1217 28.2753C89.2263 28.3149 89.3346 28.3442 89.445 28.3626C89.6645 28.3838 89.9547 28.4003 90.2049 28.4003H93.2042C93.3796 28.401 93.5547 28.3884 93.7281 28.3626C93.7963 28.3453 93.8657 28.3335 93.9358 28.3272C93.9853 28.3272 93.9948 28.3697 93.9948 28.4829C93.9948 28.6434 93.9688 29.1673 93.9688 29.3632C93.9688 29.441 93.9476 29.4859 93.9004 29.4859C93.8532 29.4859 93.8225 29.4457 93.8201 29.3372V29.2499C93.8013 29.054 93.5983 28.8416 92.9258 28.8275L91.97 28.8039V31.9071C91.97 32.615 91.97 33.2026 92.0078 33.5283C92.0314 33.7407 92.0786 33.9058 92.3004 33.9365C92.4286 33.9559 92.5578 33.967 92.6874 33.9696C92.7747 33.9696 92.8101 33.9908 92.8101 34.0309C92.8101 34.071 92.7488 34.1041 92.6662 34.1041C92.1635 34.1041 91.6892 34.0828 91.4863 34.0828C91.2833 34.0828 90.8302 34.1041 90.5282 34.1041C90.4314 34.1041 90.3771 34.0828 90.3771 34.0309C90.3771 33.979 90.4055 33.9696 90.4999 33.9696C90.5913 33.9696 90.6824 33.9585 90.7712 33.9365C90.9246 33.9058 90.9671 33.7407 90.9931 33.5236C91.0285 33.2026 91.0285 32.6032 91.0285 31.9071L91.0143 28.8039Z" fill="#1A1919"/>
<path d="M96.5765 30.5763C96.5765 29.427 96.5765 29.2147 96.5623 28.9692C96.5482 28.7238 96.4892 28.594 96.239 28.5374C96.14 28.5213 96.0396 28.5149 95.9393 28.5185C95.8591 28.5185 95.8119 28.502 95.8119 28.4477C95.8119 28.3934 95.8638 28.3793 95.9794 28.3793H96.5954C96.7912 28.3911 96.9635 28.3958 97.0673 28.3958C97.3033 28.3958 98.8207 28.3958 98.9552 28.3958C99.0897 28.3958 99.2219 28.3627 99.2832 28.3486C99.3219 28.3329 99.3623 28.3218 99.4036 28.3156C99.4413 28.3156 99.4484 28.3486 99.4484 28.384C99.4187 28.547 99.399 28.7117 99.3894 28.8772C99.3894 28.9527 99.3634 29.2878 99.3469 29.3798C99.3469 29.42 99.3257 29.4601 99.2738 29.4601C99.2219 29.4601 99.2053 29.427 99.2053 29.3562C99.2075 29.2636 99.1915 29.1714 99.1581 29.0849C99.1062 28.948 99.0331 28.8489 98.6508 28.8111C98.5233 28.7946 97.7304 28.7781 97.577 28.7781C97.5369 28.7781 97.5228 28.804 97.5228 28.856V30.7721C97.5228 30.8288 97.5228 30.8547 97.577 30.8547C97.7422 30.8547 98.6154 30.8547 98.79 30.8406C98.92 30.8505 99.049 30.8109 99.1511 30.7297C99.2053 30.6683 99.236 30.6306 99.2738 30.6306C99.3115 30.6306 99.3257 30.6447 99.3257 30.6895C99.3257 30.7344 99.295 30.8547 99.2643 31.2418C99.2643 31.3928 99.236 31.6996 99.236 31.7491C99.236 31.7987 99.236 31.8978 99.1676 31.8978C99.0991 31.8978 99.0991 31.8647 99.0991 31.827C99.0936 31.7353 99.0834 31.6439 99.0685 31.5533C99.0331 31.4022 98.9245 31.2866 98.6461 31.2606C98.5021 31.2418 97.747 31.2347 97.5676 31.2347C97.5322 31.2347 97.5228 31.2654 97.5228 31.3125V31.9072C97.5228 32.1644 97.5228 32.863 97.5228 33.0871C97.5369 33.6134 97.662 33.7243 98.4313 33.7243C98.6708 33.738 98.9107 33.7076 99.1393 33.6346C99.3351 33.5426 99.4248 33.3845 99.4791 33.073C99.4932 32.9904 99.5074 32.9597 99.564 32.9597C99.6207 32.9597 99.623 33.0187 99.623 33.0966C99.6112 33.3795 99.5781 33.6611 99.5239 33.939C99.4696 34.1349 99.4012 34.1349 99.1133 34.1349C98.5446 34.1349 98.1269 34.1184 97.806 34.1113C97.485 34.1042 97.2443 34.0901 97.0154 34.0901C96.9328 34.0901 96.7653 34.0901 96.5836 34.0901C96.4018 34.0901 96.2107 34.1066 96.062 34.1066C95.9629 34.1066 95.911 34.0854 95.911 34.0334C95.911 33.9815 95.9393 33.9721 96.0314 33.9721C96.1228 33.9723 96.214 33.9612 96.3027 33.939C96.4561 33.9084 96.4939 33.7432 96.5222 33.5261C96.56 33.2051 96.56 32.6057 96.56 31.9096L96.5765 30.5763Z" fill="#1A1919"/>
</svg>
