<?xml version="1.0" encoding="UTF-8"?>
<svg width="16px" height="17px" viewBox="0 0 16 17" version="1.1" xmlns="http://www.w3.org/2000/svg" xmlns:xlink="http://www.w3.org/1999/xlink">
    <title>928A56BF-3DB0-44D7-A674-E6A921DF2FF5</title>
    <g id="Projects" stroke="none" stroke-width="1" fill="none" fill-rule="evenodd">
        <g id="Project---desktop" transform="translate(-1249.000000, -986.000000)" fill="#1A1919">
            <g id="tags" transform="translate(164.000000, 977.000000)">
                <g id="icons/share-and-print" transform="translate(954.000000, 0.000000)">
                    <g id="share-and-print-copy" transform="translate(52.000000, 9.000000)">
                        <g id="print" transform="translate(79.429200, 0.476889)">
                            <path d="M3.30946447,0 L3.30946447,2.65051333 L0,2.65051333 L0,12.917943 L2.62403761,12.917943 L1.89374912,15.9214659 L12.8149819,15.9214659 L12.0846934,12.917943 L14.708731,12.917943 L14.708731,2.65051333 L11.3992665,2.65051333 L11.3992665,0 L3.30946447,0 Z M4.4126193,2.64977789 L10.2953763,2.64977789 L10.2953763,1.10241939 L4.4126193,1.10241939 L4.4126193,2.64977789 Z M1.10315482,3.75366815 L13.6048407,3.75366815 L13.6048407,11.8147882 L11.8169945,11.8147882 L11.1764293,9.18266076 L3.53156631,9.18266076 L2.68434341,12.6693654 L2.89173651,11.8147882 L1.10315482,11.8147882 L1.10315482,3.75366815 Z M4.39864601,10.2850802 L10.3093496,10.2850802 L11.4117689,14.8175756 L3.29696205,14.8175756 L4.39864601,10.2850802 Z" id="Fill-1"></path>
                        </g>
                    </g>
                </g>
            </g>
        </g>
    </g>
</svg>