<?xml version="1.0" encoding="UTF-8"?>
<svg width="13px" height="15px" viewBox="0 0 13 15" version="1.1" xmlns="http://www.w3.org/2000/svg" xmlns:xlink="http://www.w3.org/1999/xlink">
    <title>C10CBAAB-D637-4324-9DC4-943D35EDAC7D</title>
    <g id="Projects" stroke="none" stroke-width="1" fill="none" fill-rule="evenodd">
        <g id="Project---desktop" transform="translate(-1170.000000, -987.000000)" fill="#1A1919">
            <g id="tags" transform="translate(164.000000, 977.000000)">
                <g id="icons/share-and-print" transform="translate(954.000000, 0.000000)">
                    <g id="share-and-print-copy" transform="translate(52.000000, 9.000000)">
                        <g id="share" transform="translate(0.000000, 1.000000)">
                            <path d="M10.1623485,13.4224783 C9.89338631,13.4571118 9.6266348,13.3826867 9.41220195,13.2161512 C9.1977691,13.0496157 9.06144581,12.809392 9.02754921,12.5396929 C8.95828224,11.9833465 9.35398822,11.4741606 9.91033461,11.4041568 C9.95233692,11.3989986 9.99507612,11.3960511 10.0370784,11.3960511 C10.541843,11.3960511 10.9810251,11.7740719 11.0458708,12.2876791 C11.1144008,12.8440255 10.7186949,13.3532114 10.1623485,13.4224783 L10.1623485,13.4224783 Z M2.122222,8.16555758 C1.5621912,8.16555758 1.10532396,7.70942723 1.10532396,7.14865954 C1.10532396,6.58862873 1.5621912,6.1317615 2.122222,6.1317615 C2.68298969,6.1317615 3.13912004,6.58862873 3.13912004,7.14865954 C3.13912004,7.70942723 2.68298969,8.16555758 2.122222,8.16555758 L2.122222,8.16555758 Z M9.41220195,1.31991786 C9.5927382,1.17917328 9.80938169,1.10548501 10.0341309,1.10548501 C10.0768701,1.10548501 10.1196093,1.10769566 10.1623485,1.11285384 C10.7186949,1.18285769 11.1144008,1.6920436 11.0458708,2.24765311 C10.9758669,2.8039995 10.466681,3.19896859 9.91033461,3.13117539 C9.64063557,3.09727879 9.40041183,2.9609555 9.23387635,2.74652265 C9.06734088,2.5320898 8.99365261,2.26533829 9.02754921,1.99563924 C9.06144581,1.7259402 9.1977691,1.48645334 9.41220195,1.31991786 L9.41220195,1.31991786 Z M12.1423521,12.149882 C11.9971862,10.9892919 10.937549,10.1580882 9.77327444,10.3076754 C9.38567418,10.3563097 9.04154998,10.5132657 8.75195511,10.7358042 L8.84627608,10.5722163 L4.11917395,7.83985545 C4.19507286,7.62173819 4.244444,7.39183081 4.244444,7.14865954 C4.244444,6.99538795 4.22602194,6.84653766 4.19507286,6.70137178 L8.93396512,3.96385277 L8.90154228,3.90711281 C9.16313562,4.07364829 9.45641491,4.18786509 9.77327444,4.22765676 C9.86243724,4.23871 9.95012628,4.24386817 10.0385522,4.24386817 C11.0915575,4.24386817 12.0082395,3.4576144 12.1423521,2.38545016 L12.1423521,2.38471328 C12.2867811,1.22338624 11.4607357,0.160801471 10.3001455,0.0163724739 C9.73495655,-0.0528944942 9.1808208,0.0989033295 8.73353304,0.447448818 C8.28624528,0.795257424 8.0010717,1.29633762 7.93106785,1.85857907 C7.87506477,2.3029193 7.96422756,2.74062759 8.17276535,3.12675409 L3.68220255,5.72205475 C3.2938654,5.29761035 2.74120342,5.02643754 2.122222,5.02643754 C0.95205237,5.02643754 0,5.97848991 0,7.14865954 C0,8.31882917 0.95205237,9.27088154 2.122222,9.27088154 C2.64761932,9.27088154 3.12217174,9.07266011 3.49356059,8.75506369 L8.14918511,11.4461591 C7.96054315,11.8123898 7.87580165,12.237571 7.93106785,12.6767531 C8.0010717,13.2389946 8.28624528,13.7408116 8.73353304,14.0886202 C9.10934319,14.3811626 9.56326289,14.535908 10.0319202,14.535908 C10.1203462,14.535908 10.209509,14.5300129 10.2994086,14.5189597 C11.4607357,14.3745307 12.2867811,13.3119459 12.1423521,12.1506189 L12.1423521,12.149882 Z"></path>
                        </g>
                    </g>
                </g>
            </g>
        </g>
    </g>
</svg>