<?xml version="1.0" encoding="UTF-8"?>
<svg width="24" height="24" version="1.1" viewBox="0 0 24 24" xmlns="http://www.w3.org/2000/svg">
 <g transform="matrix(.069971 0 0 .069971 0 1.859)" fill="#fff" fill-rule="evenodd">
  <path d="m274 167c-7.778 0-14-6.222-14-14s6.222-14 14-14 14 6.222 14 14c0 7.389-6.222 14-14 14m-69 0c-7.778 0-14-6.222-14-14s6.222-14 14-14 14 6.222 14 14c0 7.389-6.222 14-14 14m102.39 78.581c21.826-15.71 35.61-39.081 35.61-64.754 0-47.511-45.948-85.827-103-85.827s-103 38.316-103 85.827c0 47.512 45.948 85.828 103 85.828 11.87 0 22.974-1.533 33.695-4.598 0.766-0.383 1.915-0.383 3.063-0.383 1.915 0 3.83 0.766 5.361 1.532l22.591 13.028c0.766 0.383 1.149 0.766 1.915 0.766a3.433 3.433 0 0 0 3.446 -3.448c0-0.767-0.383-1.533-0.383-2.683 0-0.383-3.063-10.728-4.595-17.242-0.383-0.766-0.383-1.532-0.383-2.299-0.383-2.682 0.766-4.597 2.68-5.747"/>
  <path d="m164 86c-8.93 0-16-7.07-16-16s7.07-16 16-16 16 7.07 16 16c0 8.558-7.07 16-16 16m-82 0c-8.93 0-16-7.07-16-16s7.07-16 16-16 16 7.07 16 16c0 8.558-7.07 16-16 16m41.96-86c-68.314 0-123.96 45.895-123.96 102.88 0 30.98 16.502 58.899 42.983 77.64 1.919 1.53 3.454 3.824 3.454 6.884 0 0.764-0.384 1.912-0.384 2.677-1.919 7.649-5.373 20.27-5.757 20.652-0.383 1.148-0.767 1.913-0.767 3.06 0 2.295 1.919 4.207 4.221 4.207 0.768 0 1.535-0.382 2.303-0.765l27.248-15.68c1.919-1.148 4.222-1.913 6.524-1.913 1.152 0 2.303 0 3.454 0.383 12.665 3.442 26.48 5.736 40.297 5.736h6.908c-2.687-8.031-4.222-16.445-4.222-25.242 0-51.631 50.658-93.701 112.83-93.701h6.908c-8.827-49.338-60.253-86.818-122.04-86.818"/>
 </g>
</svg>
